<?xml version="1.0" encoding="UTF-8"?>
<svg id="Layer_1" xmlns="http://www.w3.org/2000/svg" width="48.1" height="59.6" version="1.1" viewBox="0 0 48.1 59.6">
  <!-- Generator: Adobe Illustrator 29.2.1, SVG Export Plug-In . SVG Version: 2.1.0 Build 116)  -->
  <defs>
    <style>
      .st0 {
        fill: #f6f6f6;
      }

      .st1 {
        fill: #e1e1e1;
      }

      .st2 {
        fill: #424242;
        isolation: isolate;
        opacity: .3;
      }

      .st3 {
        fill: #888;
      }

      .st4 {
        fill: #fefefe;
      }
    </style>
  </defs>
  <ellipse class="st2" cx="25.8" cy="49.5" rx="17.3" ry="10.1"/>
  <g>
    <path d="M30.2,18.6c2.1-.6,6.4,5.7,7.5,5.3s.3-1,.7-.9c-.7,2.8.9,3.8,1.7,5.8s1,5.4,1.7,6c1.3,1.1,2.4-1.9,2.5-2.9.3-2.5.3-9.8-.5-12.2s-2.8-5.9-4.8-7.9c1.7-1.4,3.6-1.1,5.5-.2s3,3.6,3.6,1.6-2-4.9-3.2-6.2c-1.8-1.9-5.9-4.1-8.5-4.5s-3,.2-4-.1-1.1-1.2-2-1.6c-3.4-1.6-6.4-1.3-9.3,1s-.6,1.2-1.2,1.4c-1.4.4-4.9,0-6.7,0C7.1,4.2,3.4,6.7,1.1,12.4s-1.9,5.9-.6,6.2c1.4-.4,1.2-2.4,2.8-2.7.2,1.4-1,1.4-1.4,2.6-1.5,4.4-.7,10.7,2.8,13.9.4,0,.8-.4.9-.8.4-1.3,0-4.1.4-5.8s1.2-2.3,1.6-3.4,0-2.1.9-2.3,2.1.6,3.1,0l-1.2,6.2h1s.2.7.2.7l-1.2.6c0,3.9.4,8.5,3.7,11,.3-.3.8-.6,1-1.1,1-2.8.7-6.5,1.9-9.3.7-1.6,2.6-3,1.7-4.6,2,.8,2.5-1.7,4.4-2.1.2,1,1,1.7.9,2.8s-.5,1.2-.6,1.8c-.2,2.1-.6,5.6-.6,7.7s.6,4,.3,5.9-1.2,3.2-1.6,4.6-1.3,3.6-1.5,4.7c-.9,4.4,8,6.5,10,2.6s2.3-10,2.3-12.5-.3-1.3-.3-2.1c0-6.3-.4-12.3-1.8-18.5ZM21.9,47.6c.2-.7.6-1.1.6-1.2.6-1.8.7-2.7,1.5-4.7s.3-.6.3-.6c.2-1,0-2.5,0-3.5s0-.6,0-.9c0-1.1,0-2.2,0-3.3l.3-.9c0-1.1,0-2.2,0-3.3s.3-.8.3-.9c0-.9,0-1.8,0-2.7s.3-1.1.3-1.2c0-.6,0-1.5,0-2.1s-.2-.6-.3-.9c0-.5-.6-1.9-.6-2.4,0-.7.2-.9.3-1.2.1-.8,0-1.9,1.1-2,2-.2,1.7,1.2,2.2,1.7s.4-.2.9.9.4,1.5.6,2.4.2.4.3.9c.1.9.1,2,.3,3s0,.6,0,.9c.1.9.2,1.7.3,2.7s.2.4.3.9c.1,1.3.2,2.5.3,3.8s0,.6,0,.9c0,1.1,0,2.2,0,3.3s0,.4,0,.6c0,1.2.2,2.1,0,3.5s0,.8,0,1.2c-.2,1.2-.6,3.5-.9,4.7s-.2.8-.3,1.2c-.2.9-.6,2.9-1.2,3.4-1.2,1-5.7.2-6.7-.9s-.2-2,.3-3.4ZM13.3,34.9c-.8-.7-2-5.2-1.8-6.3s1-.6.6-3.1-.3-.1-.3-.4.3-.6.3-.7c.2-2.1,1-4.2,1.8-6.2s0-.3,0-.5c.3-.2.6-.2.8-.4.2-1.3,1.4-3.4,2.2-4.4s1-.6,1.3-.9.3-.4.6-.6c1.1-.7,4.2-2.8,5.3-1.8s.2.2.3.6c.1.8.1,4.2,0,4.8s-.8.7-1,1.1c-.5,1-.1,1.3-1,2.7s-.8.7-.9.9c-1.1,1.6-.2,1.6-2.4,3s-.9.7-1.5.9c0,.3.2,1.3.1,1.5-.2.4-2.1,2.5-2.5,3.2l-.3.6c-.2,1.5,0,4.3-.6,5.6s-.4.7-.8.9c-.4.1-.4-.2-.4-.3ZM39.6,23.3c-.4-.2-.4-.7-.6-.9-.2-.3-.8-.5-1-.9l-.9.9c-.5-.6-1.1-1-1.6-1.5s-.6-.9-.6-.9c-.8-.7-1.8-1.4-2.7-2.1s-.5-.5-.6-.6c-1.1-.8-2.7-1.5-3.8-2.4s-.4-.7-.6-.9-.5.2-.9-.7,0-3-.3-3.7-.8-.2-.6-1,.7-.6,1.2-.8c1.5-.6,4.9.3,6.5.9s.8.7,1.2.9c.7.4,1.1.7,1.8,1.2s.2.2.3.3c2,1.7,2.3,1.8,3.8,4.1s.4.2.6.6c.8,1.4,1.7,3.7,2.1,5.3s.2.6.3,1.2c.1,1.2,0,2.6,0,3.8s0,1,0,1.5-.3.9-.3,1.3c0,1.3.5,3.5-.6,4.3,0-1.6-.4-3.3-1-4.8-.9-2.2-2.3-2.4-1.7-5.2ZM3,27.5c-.3-.8-.6-1.2-.6-2.2s.2-3.5.3-4.6c.2-1.7.6-2.7,1.5-4.1s.5-.4.6-.6c1-1.4,2.4-2.4,3.2-3.5s0-.5,0-.6.5.3.6.3c.9-1.9,3.8-2.9,5.6-3.5s.7-.5,1.2-.6c2.4-.6,4.9-.5,7.3-.9l.3,1.2c-1.4.3-3.1,1.6-4.4,1.8-.2.6-.8.8-1.2,1.2s-1,1.1-1.3,1.5c-.7.9-1.9,3.6-2.4,4.1s-.7.2-1,.3-.6.2-.9.3c-1.7.6-1.4,1.3-2.4,1.8s-1,0-1.8,0c-.2,1-1.9,3.5-2.4,4.7s-.2.7-.3.9c-.5,1.7-.7,3.5-.6,5.3-.9-.6-1.2-1.7-1.5-2.7ZM4.2,14.5c-1,.8-2.3,1.3-3.2,2.4-.6-.8,1.8-5.9,2.9-6.5,0-.8,1.2-1.8,1.8-2.4,1.9-2,1.9-1.6,4.4-2.4s.5-.2.9-.3c1.3-.3,3.1-.8,4.4-.9s.6,0,.9,0c1.6.1,3.6,1.4,5.3,1.5l-4.4.6c-.9.6-2.3.6-3.2.9s-4,1.6-5,2.4-.6.6-.9.9c-1.1,1-2.2,2.5-3.5,3.5s-.2.2-.3.3ZM44.9,9.1c.7,1,1.8,2,2.1,3.2-.7-.5-1.4-1.4-2.2-1.8s-.7-.2-1-.3-.8-.3-.9-.3c-.6,0-1.2,0-1.8,0s-1,0-1.8,0-1.5-.1-2.1-.3-.5-.2-.9-.3c-1.6-.6-4.3-2.7-5.6-2.7s0,.3-.4.2-1.1-.2-1.4-.5c-.2.1-2.8.2-2.1-.6l4.4-1.5c0-.1-.1-.5.2-.6.3,0,.7,0,1,0,1,0,2.3-.1,3.2,0s.5.3.6.3c1,.1,2.7.4,3.5.6s.7.7.9.9c.6.5,1.1.6,1.8.9s1.7,1.8,2.4,2.7ZM23.4,5.6c-.4-.3-1.9-1.1-2-1.2-.7-1.3,2-2.2,2.9-2.6s.4-.5,1.2-.6,2.6.3,3.5.6,1-.3,1.8.9.5,0,.3.6c-1,.1-2,.4-2.9.8s-3.3,2-3.9,2.1c-1.3.2-.8-.5-.9-.6Z"/>
    <path class="st3" d="M43.1,27.8c0-.5,0-1,0-1.5l-2.1-4h2.1c0-.4-.2-.6-.3-1-.9,0-2.3-.7-3-1.3s-1.9-2.8-2-3.3,0-.4.4-.4c.8,0,1.7.2,2.5-.3-.2-.4-.5-.5-.6-.6-2.7.4-4.7-1-6.5-2.8l2.6-1.3c-.1,0-.2-.2-.3-.3-2.3.3-3.8,1.7-5.3-.9l3.5-.3c-.3-.2-.2-.5-1.2-.9-1,.2-3.3.6-4.2.5s-2.5-.7-2.3-1.4c-.4.2-1,.2-1.2.8s.5.9.6,1c0-1.5,2.1.7,2.7.3l-1.5,4.1c.1.2,0,.4.6.9l1.5-4.3c3.4.1,3.3,4.3,2.4,6.7.1,0,.3.4.6.6.6-1.6,1.3-2.7.6-4.4,1.4-.2,2.2,1.3,3.5,1.8.1.2-.2,4.9-1.4,4.7,0,0,.1.4.6.9,1-1,1.1-1.6,1.4-2.9s-.1-1,.5-.7,2.6,4.1,1.6,5c.2.2.2.7.6.9,0-.2.3-1.3.6-1.2.7,1.6,1.5,3.2,2.1,4.8s0,1,.8.8ZM40.8,21.3v.6h-.3v-.6h.3Z"/>
    <path class="st3" d="M14.5,34.3c-.6-1.5-.3-3.6,0-5.2s-.3-1,.6-.4l.3-.6c-.2-.4-.7-.7-.8-1.1-.4-1.5,1.6-5.4,1.6-7.2l.4-.3c-.1,1.5.9,2.4,1.2,3.8.6-.2,1-.6,1.5-.9-3.9-2.2-1.4-7.7,1.2-10.1-.7,2.9-.1,4.6,1.2,7.1.1-.2.6-.4.9-.9-2.1-1.6-1.3-4.3-1.1-6.6l3.2-2c0-.3,0-.4-.3-.6-1.9.7-3.1,2-5.3,1.8-.3.2-.4.4-.6.6l1.2.4c-1.4.8-1.8,3.1-2.6,4.1s-1.8.6-2.1.8-.6.2-.8.4c-.1.2,0,.4,0,.5l2.1-.3c.3.9-.6,1.4-.7,2.1-.6,2.1-.4,3.5-3.1,4.4,0,.2-.3.4-.3.7s.3.4.3.4c.4-.3,1.5-1.7,1.8-.7l-.6,10.2c0,0,0,.4.4.3.3-.2.6-.5.8-.9Z"/>
    <path class="st3" d="M3,27.5l.9-5c.5,0,.2.8.4,1.3s.3.9.8,1.1c0-.2.2-.7.3-.9-1.3-2.7-.2-4.7,1.9-6.5.3,0,.5,1.7.4,1.8.8,0,1.1.4,1.8,0l-1.1-1.8c.4-.7.5-1.5,1.1-2.2s2.4-2.1,2.5-2.2.5,0,.4.1c-1,1.2-.5,2.9-.6,4.3.3-.1.6-.2.9-.3,0-.9-.1-1.9,0-2.8.4-2.7,2.4-2.7,4.7-3.1.3-.4,1-.6,1.2-1.2-1.4.2-3.2-.6-3.2-2.1-.5.1-.8.5-1.2.6l2.4,2.1c-1.6-.2-3.3,1.3-4.6,1.5s-2.4,0-3.4,0-.5-.4-.6-.3,0,.5,0,.6c.2.7.8.6,1.3.6s1.6-.3,1.6.3c-2.3,1.1-3,4.2-6.2,2.7-.1.1-.4.3-.6.6l2.4.7c-1.6.9-1.8,3.6-3.8,3.4-.2,1-.3,3.4-.3,4.6s.3,1.4.6,2.2Z"/>
    <path class="st4" d="M29.9,47.3c.3-1.3.7-3.5.9-4.7-2.4.5-4.7.6-6.8-.9-.8,2-.9,2.9-1.5,4.7,1.6,2.5,5,2.1,7.4.9Z"/>
    <path class="st3" d="M43.7,10.3c.1-.9-.4-1-.9-1.5v1.2s.6.2.9.3Z"/>
    <path class="st3" d="M41.1,10l-.6-2.4c1.2-.3,1.3.7,1.8,1s.5.1.6.2l.4-.3,1.6.6c-.6-.9-1.6-2.3-2.4-2.7-.6,1.3-2-.2-2.9,0l1.2-.9c-.2-.2.3-.6-.9-.9l-1.1,1.5-3.7-.9c.2-.3.2-.6.3-.9-1.2.3-1.8,1.4-3.5.9l.6-1.5c-.3,0-.7,0-1,0-.3.1-.2.5-.2.6-.3.9-.9.8-.6,1.5-.5,0-1.1-.1-1.6,0s-.2.6-.2.6c.3.3,1,.5,1.4.5s.3-.2.4-.2c1.9-1.8,5.5.2,5.6,2.7.3.1.5.2.9.3,0-.9-.3-1.8-.9-2.5s-1.9-1.2-.7-1,3.4.8,3.6,1c.6.4,1.2,2.5,0,2.9.7,0,1.2,0,1.8,0Z"/>
    <path class="st3" d="M36.3,4.1c0,0-.3-.3-.6-.3,0,.2-.2.4-.3.6.3,0,.7.1.9-.3Z"/>
    <path class="st4" d="M29.6,48.4c-2.9,1.2-5.1.6-7.7-.9-.4,1.4-1.5,1.9-.3,3.4s5.5,1.9,6.7.9,1-2.5,1.2-3.4Z"/>
    <path class="st0" d="M21.6,19.5c-1.3-2.5-1.8-4.2-1.2-7.1-2.6,2.3-5.1,7.8-1.2,10.1,2.2-1.4,1.3-1.3,2.4-3Z"/>
    <path class="st4" d="M30.7,41.4c.2-1.4,0-2.4,0-3.5-.2.7-.8.6-1.3.6-1.7.1-3.8.1-5.2-.9,0,1.1.2,2.6,0,3.5,2.3.9,4.1,1.3,6.5.3Z"/>
    <path class="st0" d="M30.7,33.1c0-1.3-.2-2.5-.3-3.8-1.9,1-3.9.6-5.9,0,0,1.1,0,2.2,0,3.3,2,1.3,3.9.8,6.2.6Z"/>
    <path class="st0" d="M30.7,37.2c0-1.1,0-2.2,0-3.3-2.4.4-4.2.5-6.5-.6,0,1.1,0,2.2,0,3.3,2,1.1,4.3,1.2,6.5.6Z"/>
    <path class="st3" d="M4.5,14.2c0-1,.6-4.6,1.2-5.2s2.6-1.1,2.7-1l-.3,2.7c.3-.3.7-.8.9-.9-.4-2.7,3.1-2.9,5-2.4,1-.3,2.3-.3,3.2-.9-1.3-.2-.9-1-.9-2.1-.3,0-.6,0-.9,0v1.8c-1.3-.5-4.6,1.2-4.4-.9-.4,0-.6.2-.9.3,0,.6.7.7-.1.9-1.4.5-2.9.9-4.3,1.4-.6.6-1.7,1.5-1.8,2.4s.3.2.2.6c-.2,1.1-1.1,2.5,0,3.5.1,0,.2-.2.3-.3Z"/>
    <path class="st0" d="M24.5,10l-3.2,2c-.2,2.3-1,5,1.1,6.6.9-1.4.6-1.6,1-2.7s.8-.6,1-1.1.2-4,0-4.8Z"/>
    <path class="st0" d="M31.6,17.4c.9-2.4,1-6.5-2.4-6.7l-1.5,4.3c1.1.9,2.7,1.5,3.8,2.4Z"/>
    <path class="st0" d="M34.9,20.1c1.2.2,1.6-4.4,1.4-4.7-1.3-.5-2-2-3.5-1.8.7,1.7,0,2.8-.6,4.4.8.6,1.9,1.4,2.7,2.1Z"/>
    <path class="st0" d="M17.8,23.3c-.3-1.4-1.3-2.3-1.2-3.8l-.4.3c0,1.7-2,5.7-1.6,7.2s.7.7.8,1.1c.4-.7,2.3-2.8,2.5-3.2s0-1.2-.1-1.5Z"/>
    <path class="st0" d="M8.6,12.1c.9,0,2.5.1,3.4,0,1.3-.2,3-1.7,4.6-1.5l-2.4-2.1c-1.8.7-4.7,1.7-5.6,3.5Z"/>
    <path class="st0" d="M43.1,27.8c-.7.2-.6-.3-.8-.8-.7-1.6-1.4-3.2-2.1-4.8-.3,0-.5,1-.6,1.2-.6,2.8.8,3,1.7,5.2s1,3.2,1,4.8c1.1-.8.5-3,.6-4.3s.3-.9.3-1.3Z"/>
    <path class="st0" d="M30.1,28.3c0-.9-.2-1.8-.3-2.7-1.5,1.1-3.4.5-5,0,0,.9,0,1.8,0,2.7,1.6.7,3.8,1.1,5.3,0Z"/>
    <path class="st0" d="M18.7,10c1.4-.2,3-1.4,4.4-1.8l-.3-1.2c-2.4.4-5,.3-7.3.9,0,1.5,1.9,2.3,3.2,2.1Z"/>
    <path class="st0" d="M12.2,25.4c.4,2.5-.3,1.6-.6,3.1s.9,5.6,1.8,6.3l.6-10.2c-.3-1-1.3.4-1.8.7Z"/>
    <path class="st0" d="M42.8,21.3c-.3-1.6-1.3-3.9-2.1-5.3-.8.5-1.7.2-2.5.3s-.6-.1-.4.4,1.7,2.9,2,3.3c.7.6,2,1.4,3,1.3Z"/>
    <path class="st0" d="M40.2,15.3c-1.5-2.4-1.8-2.5-3.8-4.1l-2.6,1.3c1.8,1.8,3.8,3.2,6.5,2.8Z"/>
    <path class="st1" d="M29.9,24.8c-.1-1-.2-2.1-.3-3-1.3.9-2.9,1.1-4.4.6,0,.6,0,1.5,0,2.1,1.2,1.3,3.3,1.1,4.7.3Z"/>
    <path class="st0" d="M12.2,24.2c2.7-.9,2.4-2.4,3.1-4.4s1-1.1.7-2.1l-2.1.3c-.8,2-1.6,4.1-1.8,6.2Z"/>
    <path class="st0" d="M17.5,11.2c-2.3.5-4.3.4-4.7,3.1s0,1.9,0,2.8c.3-.1.6.1,1-.3s1.7-3.2,2.4-4.1.9-1.1,1.3-1.5Z"/>
    <path class="st0" d="M11.9,17.4c.1-1.4-.4-3.1.6-4.3,0-.2-.3-.2-.4-.1s-2.3,2-2.5,2.2c-.5.7-.6,1.5-1.1,2.2l1.1,1.8c1-.5.7-1.2,2.4-1.8Z"/>
    <path class="st0" d="M4.5,14.2c1.3-1.1,2.5-2.6,3.5-3.5l.3-2.7c-.1-.1-2.5.9-2.7,1-.5.6-1.2,4.2-1.2,5.2Z"/>
    <path class="st0" d="M4.8,15.9c3.2,1.5,3.9-1.6,6.2-2.7,0-.6-1.2-.2-1.6-.3s-1.1,0-1.3-.6c-.9,1.2-2.2,2.2-3.2,3.5Z"/>
    <path class="st1" d="M29.3,21c-.2-.9-.2-1.5-.6-2.4-1.4,1-2.8,1.2-4.4.6,0,.5.5,1.8.6,2.4,1.4.3,3.5.8,4.4-.6Z"/>
    <path class="st3" d="M24.3,6.2c-.6-4.5,3.8-2.7,6.5-3.5-.7-1.2-.8-.7-1.8-.9-.7.6-1.9.1-2.8.3s-.7.7-1.3.6l.6-1.5c-.8,0-.8.4-1.2.6-.4,1.3-1.2,2.3-.9,3.8,0,0-.4.8.9.6Z"/>
    <path class="st0" d="M39,22.4c1-.9-1.1-4.8-1.6-5s-.4.5-.5.7c-.3,1.3-.4,1.9-1.4,2.9.5.5,1.2.9,1.6,1.5l.9-.9c.2.4.8.6,1,.9Z"/>
    <path class="st0" d="M24.3,6.2c.6,0,3-1.7,3.9-2.1s1.9-.7,2.9-.8c.2-.6-.2-.5-.3-.6-2.7.8-7-.9-6.5,3.5Z"/>
    <path class="st0" d="M4.2,14.5c-1.2-1-.3-2.3,0-3.5s-.2-.6-.2-.6c-1.1.6-3.6,5.7-2.9,6.5.9-1.1,2.2-1.5,3.2-2.4Z"/>
    <path class="st0" d="M39.3,10c1.1-.4.5-2.4,0-2.9s-3.1-.9-3.6-1c-1.2-.2.6.9.7,1,.6.7,1,1.6.9,2.5.6.2,1.4.2,2.1.3Z"/>
    <path class="st0" d="M14.8,17.1c.3-.2,2-.7,2.1-.8.9-1,1.2-3.3,2.6-4.1l-1.2-.4c-.3.3-.7.2-1.3.9s-2,3.1-2.2,4.4Z"/>
    <path class="st0" d="M7.7,19.2c0,0-.1-1.8-.4-1.8-2.1,1.8-3.2,3.8-1.9,6.5.5-1.2,2.2-3.8,2.4-4.7Z"/>
    <path class="st0" d="M27.2,14.2l1.5-4.1c-.6.4-2.7-1.8-2.7-.3.3.8-.2,2.5.3,3.7s.8.6.9.7Z"/>
    <path class="st0" d="M5.1,24.8c-.5-.2-.7-.6-.8-1.1s.2-1.3-.4-1.3l-.9,5c.3.9.6,2.1,1.5,2.7,0-1.8.1-3.6.6-5.3Z"/>
    <path class="st0" d="M36.3,9.4c0-2.4-3.7-4.5-5.6-2.7,1.3,0,4.1,2.1,5.6,2.7Z"/>
    <path class="st3" d="M29.6,48.4c0-.4.2-.8.3-1.2-2.3,1.2-5.8,1.6-7.4-.9,0,0-.4.5-.6,1.2,2.6,1.5,4.8,2.1,7.7.9Z"/>
    <path class="st0" d="M2.7,20.7c2,.2,2.2-2.5,3.8-3.4l-2.4-.7c-.9,1.4-1.2,2.5-1.5,4.1Z"/>
    <path class="st1" d="M27.8,17.7c-.5-.6-.1-1.9-2.2-1.7s-.9,1.2-1.1,2c.4,1,3.3,1,3.2-.3Z"/>
    <path class="st3" d="M30.7,42.5c0-.4,0-.8,0-1.2-2.4,1-4.2.6-6.5-.3,0,0-.2.4-.3.6,2.1,1.4,4.3,1.4,6.8.9Z"/>
    <path class="st0" d="M33.1,8.8c-1.6-.6-4.9-1.5-6.5-.9-.2.8,1.9,1.4,2.3,1.4.9,0,3.2-.3,4.2-.5Z"/>
    <path class="st0" d="M11,5.3c-.2,2.1,3.2.4,4.4.9v-1.8c-1.3,0-3.1.6-4.4.9Z"/>
    <path class="st3" d="M30.7,37.8c0-.2,0-.4,0-.6-2.2.6-4.5.5-6.5-.6,0,.3,0,.6,0,.9,1.4,1,3.5,1,5.2.9s1.1,0,1.3-.6Z"/>
    <path class="st0" d="M36,10.9c-.6-.5-1.1-.8-1.8-1.2l-3.5.3c1.5,2.5,3,1.1,5.3.9Z"/>
    <path class="st3" d="M30.7,34c0-.3,0-.6,0-.9-2.3.2-4.1.7-6.2-.6l-.3.9c2.3,1.1,4,1,6.5.6Z"/>
    <path class="st0" d="M17.2,6.5l4.4-.6c-1.7-.1-3.7-1.3-5.3-1.5,0,1.1-.4,1.8.9,2.1Z"/>
    <path class="st0" d="M24.3,1.7c-.9.4-3.6,1.3-2.9,2.6s1.6.9,2,1.2c-.3-1.5.5-2.5.9-3.8Z"/>
    <path class="st0" d="M13.9,7.4c-1.9-.5-5.4-.4-5,2.4,1.1-.8,3.7-2,5-2.4Z"/>
    <path class="st0" d="M35.5,4.4c-.1.3-.1.6-.3.9l3.7.9,1.1-1.5c-.9-.2-2.6-.5-3.5-.6-.1.4-.6.2-.9.3Z"/>
    <path class="st0" d="M35.5,4.4c0-.2.2-.4.3-.6-.9-.1-2.3,0-3.2,0l-.6,1.5c1.7.5,2.4-.5,3.5-.9Z"/>
    <path class="st3" d="M30.4,29.2c0-.5-.3-.8-.3-.9-1.5,1.1-3.7.7-5.3,0,0,0-.3.4-.3.9,2,.6,4,1,5.9,0Z"/>
    <path class="st3" d="M29.9,25.7c0-.3,0-.6,0-.9-1.4.8-3.5,1-4.7-.3,0,0-.3.6-.3,1.2,1.6.5,3.5,1.1,5,0Z"/>
    <path class="st0" d="M43.1,22.4h-2.1c0-.1,2.1,3.8,2.1,3.8,0-1.2.1-2.7,0-3.8Z"/>
    <path class="st4" d="M29,6.5s-.1-.5.2-.6c.4-.1,1.1,0,1.6,0-.4-.7.2-.6.6-1.5l-4.4,1.5c-.8.8,1.9.7,2.1.6Z"/>
    <path class="st3" d="M28.7,18.6c-.5-1.1-.7-.7-.9-.9.1,1.3-2.8,1.3-3.2.3,0,.3-.3.5-.3,1.2,1.7.6,3,.5,4.4-.6Z"/>
    <path class="st0" d="M44.9,9.1l-1.6-.6-.4.3c.5.4,1,.6.9,1.5.4,0,.6,0,1,.3.8.4,1.5,1.3,2.2,1.8-.3-1.2-1.3-2.3-2.1-3.2Z"/>
    <path class="st0" d="M42.8,10v-1.2s-.4,0-.6-.2c-.5-.3-.6-1.3-1.8-1l.6,2.4c.6,0,1.2,0,1.8,0Z"/>
    <path class="st0" d="M24.3,9.4c-1.1-1-4.2,1-5.3,1.8,2.2.2,3.4-1,5.3-1.8Z"/>
    <path class="st3" d="M29.6,21.8c0-.5-.3-.7-.3-.9-.9,1.4-3.1.9-4.4.6,0,.3.3.7.3.9,1.5.5,3.1.3,4.4-.6Z"/>
    <path class="st0" d="M5.7,7.9c1.4-.5,2.9-1,4.3-1.4s0-.3.1-.9c-2.5.7-2.5.4-4.4,2.4Z"/>
    <path class="st0" d="M15.1,28.6c-.9-.6-.5-.2-.6.4-.3,1.6-.6,3.6,0,5.2.5-1.3.4-4.1.6-5.6Z"/>
    <path class="st0" d="M29,1.7c-1-.2-2.6-.7-3.5-.6l-.6,1.5c.6,0,.8-.5,1.3-.6.9-.2,2.1.3,2.8-.3Z"/>
    <path class="st0" d="M42.5,6.5c-.7-.3-1.2-.4-1.8-.9l-1.2.9c1-.2,2.3,1.3,2.9,0Z"/>
    <rect class="st0" x="40.5" y="21.3" width=".3" height=".6"/>
  </g>
</svg>