<?xml version="1.0" encoding="UTF-8"?>
<svg id="Layer_1" xmlns="http://www.w3.org/2000/svg" width="35.8" height="30.2" version="1.1" viewBox="0 0 35.8 30.2">
  <!-- Generator: Adobe Illustrator 29.2.1, SVG Export Plug-In . SVG Version: 2.1.0 Build 116)  -->
  <defs>
    <style>
      .st0 {
        fill: #7e7a6c;
      }

      .st1 {
        fill: #84738e;
      }

      .st2 {
        fill: #b9b19e;
      }

      .st3 {
        fill: #ebe1c8;
      }

      .st4 {
        fill: #584e47;
      }

      .st5 {
        fill: #d8cfb9;
      }

      .st6 {
        fill: #1a1917;
      }
    </style>
  </defs>
  <path class="st1" d="M4.8,18.9c1.5,5.2,8.2,6.8,13.1,6.2,1.7-.2,2.8-1.1,5-.7s2,1.3,2.2,1.4c.3.1,4.8,0,5.2-.2s.3-.6.7-.8,1-.1,1.4-.5,1.2-1.3,1.2-1.4c.2-1.5-.4-1.5-.5-1.7-.1-.6,0-1-.5-1.5,1.4-.1,1.8,1.1,2.4,2s.6.3.7.6,0,1.8,0,2.1-1.6,1.9-1.8,2.1c-2.8,1.9-5.3,2.5-8.6,3.1-.7.1-2.1.5-2.4.5-4.1.5-8.3.2-12-.5-2.4-.4-5.3-1.2-7.3-2.3s-2.7-2-3.1-3.2c-.7-2.2,2.2-4.6,4.2-5.1Z"/>
  <path class="st6" d="M3.1,3.1c-.2.3,0,.4-.5.7,0-.2,0-.5,0-.7.2,0,.3,0,.5,0Z"/>
  <path class="st6" d="M4.8,18.9c-.4-1.4-.5-3.1-.8-4.6s-1.1-1.8-1.5-2.9-.1-2.4-.3-3.2-.5-.2-.7-.6C1.2,7,0,3.3,0,2.7s0-.5.1-.8S2.3.2,2.6.2c.9,0,.7.6,1,.7,1.6.4,5.6.2,7.4.2s1-.9,1.2-.9c1.3-.2,4.7-.3,5.9.3s4.7,3.1,5.4,4.1.3,1.2.6,1.7c1.7,3.1,2.3,6.5,4,9.6s.2.8.4,1.1c.8,1.3,3,1.2,4.2,2.7s.3.9.5,1.5.7.3.5,1.7-1.1,1.3-1.2,1.4c-.5.3-1,.3-1.4.5s-.4.8-.7.8c-.4.1-4.9.3-5.2.2s-1.4-1.2-2.2-1.4c-2.2-.4-3.3.5-5,.7-4.9.5-11.5-1-13.1-6.2ZM11.3,2.3c-.5.1-.7-.3-.8.7h-.7s0-.5.2-.7c-1.1,0-2.4-.2-3.4.1s-.4.4-.6.6-.5,0-.6,0,0,.4-.2.6-.5.3-.5.3c-.2-.9.6-.8.7-1s.1-.6.2-.7c-.5,0-1.2-.2-1.7.1s.2.3-1,.6c.2-.3.2-.7.5-1-.9-.4-1.5-.1-2.4.3l.4,1.5c.4.2.7,0,1-.1-.2.9-.6,1.7.4,2.4.6-.7,1.1-1.1,1.1-2.1h.7c-.3.6-.2,1.1-.7,1.9s-.4.2-.4.4c-.6,1.3-.7,3.7,1.2,3.9-.2-.8.4-1.1.7-1.6s0-.4,0-.5c.4-1,1.7-3.5,2.4-4.2s1.7-.6,1.9-.8c.4,1.1-1.2.7-1.4,1s0,.6,0,.7-.4.2-.5.4c-.3,1.1,0,2.7-1,3.6s-.5,0-.6,0c-.1.1,0,.9,0,1.2s-.5,1-.6,1.6c-.3,1.8,1.1,2.5,1.4,4.1-1.2.3-.5-1.1-1.4-1.4,0,1.2,0,2.8.7,3.9,1.3,2.3,4.4,5.2,7.1,5.5,2.2.2,4.8.2,6.4-1.4.5,0,1,0,1.4,0v-.5c1.6-.1,2.6-1.1,3.2-1.2s4.1-.1,4.8,0,.9,1,1.1,1.2c0,0,.2.2.2.4,0,1.6-1.9,1.6-3.1,1.5,0-.1,0-.4,0-.5-.4,0-.8,0-1.2,0l.4-.7h.5c.4.2.3.5.4.7,1.3,0,1.6.1,2.6-.7.4-.6-2.6-.9-3-1-1.4,0-2.8,0-4.2.3l-.3.6c1.4,1.6,3.6,1.7,5.6,1.7,1.3,0,3.9-.5,3.9-2.1s-1.1-1.9-2.1-2.1c-.4-.5-1.4-.6-1.8-1-.8-.8-1.9-3.3-2.5-4.3-.3-1-.5-2.7-.9-3.5s-.5-.3-.6-.6c-.9-2.2-1-5-3.1-6.5S15.7.9,12.9,1.6s-.7.5-1.6.7Z"/>
  <path class="st2" d="M11.3,2.3c.8.9-1.4,1.5-1.5,1.8,0,.6.2.8.7.8v.5s0,.3,0,.4c-.7.4-1.5,0-1.4,1.4s1.1.5,2.1.4c1.6-.2,4.2.7,5.5,1.7s.3.6.7.8c.8.5.8,0,1.4,1.1s0,.6,1,1.2c0,.2,0,.5,0,.7l.9.3c0,0,.2.1.2.2s0,.6,0,.7.4,0,.5,0c.2,0,.2.2.2.2-.2,1.2,1.1,1,1.4,1.3s0,.5.2.7c.3.2,1.9.7,2.4.9.4-.8-1-.8-1.3-1l.7-.8c-1.4-.4-1.1-1.5-1.6-2.5s-1.6-2.6-2.4-3.8-1.2-.5-1.3-.6-.6-1.4-.9-1.7c-.5-.5-2.7-1.3-3.5-1.7l-1.2-.9c1.8,0,4.5,1.4,6,2.5.2.2,1.6,1.7,1.7,1.8.5.6,1.1,1.8,1.5,2.5s.2,2,1.6,2.3c.4.8.7.9.7,1,.6,1,1.8,3.5,2.5,4.3s1.3.5,1.8,1c-.6,0-2.5-.2-3-.2h-3.6c-.4,0-3.1-.5-3.5-.7-.7-.3-1.4-.8-2.3-1.2,1.7-.9,3.2.6,4.9.2s.7-.2.6-.6c-.3-.6-1.4-.5-1.6-.7s0-.5-.1-.6c-2.7-2.8-5.2-5.7-8.8-7.4-.2,0-.2-.5-.3-.5-.3-.2-1.6,0-2,.2s0,.4-.1.6-.5.3-.7.4c-.4.4,0,1.1-1,.9v2.1c.5,0,1,.4,1.4.7,1.4,1,2.7,2.2,4.3,2.6,0,.2-.1.6.2.7.9.2,1.6,1,2.3,1.5,1.4.7,4,1.9,5.6,2.1,2.4.3,5.2,0,7.6.3.6.2.3,1,.4,1.4-.2-.2-1-1.2-1.1-1.2-.7-.1-4-.1-4.8,0s-1.7,1.1-3.2,1.2-6.1,0-8-.7-3-2.7-4-3.1c-.4-.7-.5-1-1.4-1.2-.1-.1-1,0-.7-1-.2-1.6-1.7-2.3-1.4-4.1s.5-1,.6-1.6,0-1.1,0-1.2.5,0,.6,0c1.1-.9.8-2.5,1-3.6s.3-.1.5-.4,0-.6,0-.7c.2-.3,1.8.1,1.4-1h.7c0-1.1.2-.6.8-.7ZM26.9,17.7l-1-.2v.5s1,0,1,0v-.2Z"/>
  <path class="st3" d="M11.3,2.3c.8-.2,1-.5,1.6-.7,2.8-.8,6.1.7,8.2,2.3s2.2,4.3,3.1,6.5.5.3.6.6c.4.9.6,2.6.9,3.5,0,0-.3-.2-.7-1s-1.8-3.9-2.3-4.6-.7-.2-.8-.2-.6-1.5-1.1-1.9-3.2-2.1-3.9-2.3c-2.5-.8-4-1.1-6.3.4-.5,0-.8-.3-.7-.8,0-.3,2.3-.9,1.5-1.8Z"/>
  <path class="st0" d="M19.7,22.3c-1.6,1.7-4.1,1.7-6.4,1.4-2.7-.3-5.8-3.1-7.1-5.5-.6-1.1-.8-2.7-.7-3.9.9.4.3,1.8,1.4,1.4-.3.9.6.8.7,1s.5,1,.8,1.1.5,0,.6,0c.3.6.2.9.9,1.4,1.1.8,1.1.4,1.9,1.5s6.2,1.4,7.7,1.4Z"/>
  <path class="st4" d="M9.8,13.1c.3-.4,1.5.3,1.8.5.4.3.5.7.9,1s1.5.6,1.6.7c.1,0,0,.3,0,.4,1.9.5.8.3,1.6,1s1.3.8,1.8.9c1,.4,1.6.8,2.3,1.2s3.1.7,3.5.7h3.6c.5,0,2.4.2,3,.2,1,.1,2.1,1,2.1,2.1,0,1.6-2.6,2-3.9,2.1-2,0-4.2,0-5.6-1.7l.3-.6c1.4-.2,2.8-.4,4.2-.3.4,0,3.4.3,3,1-1,.8-1.3.8-2.6.7,0-.2,0-.6-.4-.7h-.5s-.4.7-.4.7c.4,0,.8,0,1.2,0,0,.1,0,.3,0,.5,1.2.1,3.2.1,3.1-1.5s-.2-.3-.2-.4c0-.5.2-1.2-.4-1.4-2.4-.4-5.3,0-7.6-.3s-4.2-1.4-5.6-2.1c-.8-.4-1.4-1.2-2.3-1.5-.3-.2-.1-.5-.2-.7-1.6-.5-2.9-1.6-4.3-2.6Z"/>
  <path class="st3" d="M5.5,3.1c0,0,.4,0,.6,0,.3-.2.2-.5.6-.6,1-.3,2.3,0,3.4-.1-.1.2-.2.7-.2.7-.2.2-1.5.3-1.9.8s-1.9,3.3-2.4,4.2l-1.4-.5v-1.7c.5-.8.4-1.3.7-1.9s.4-.2.5-.3.2-.6.2-.6Z"/>
  <path class="st5" d="M3.1,3.1c1.1-.2.5-.3,1-.6s1.2,0,1.7-.1c-.1.2-.2.7-.2.7-.1.1-1,0-.7,1h-.7c0,1-.5,1.5-1.1,2.2-1-.7-.6-1.5-.4-2.4.5-.3.3-.4.5-.7Z"/>
  <path class="st5" d="M2.7,3.8c-.3.2-.6.4-1,.1l-.4-1.5c.9-.4,1.4-.7,2.4-.3-.3.3-.3.7-.5,1-.1,0-.3,0-.5,0,0,.2,0,.5,0,.7Z"/>
  <path class="st2" d="M4.1,5.9v1.7s1.4.5,1.4.5c0,.1,0,.4,0,.5-.3.5-.9.8-.7,1.6-1.8-.2-1.7-2.6-1.2-3.9s.4-.3.4-.4Z"/>
  <path class="st4" d="M9.1,17.9c1,.4,3.3,2.8,4,3.1,1.8.7,6,.9,8,.7v.5c-.5,0-1,0-1.4,0-1.5,0-6.9-.3-7.7-1.4s-.8-.7-1.9-1.5-.6-.8-.9-1.4c-.1,0-.4,0-.6,0s-.7-1-.8-1.1c.9.2,1.1.5,1.4,1.2Z"/>
  <path class="st3" d="M9.8,13.1c-.5-.3-.9-.7-1.4-.7v-2.1c.9.1.6-.5,1-.9s.5-.2.7-.4,0-.5.1-.6c.4-.2,1.6-.4,2-.2s.1.4.3.5c3.6,1.8,6.1,4.6,8.8,7.4.1.1,0,.5.1.6.2.2,1.4,0,1.6.7,0,.4-.3.5-.6.6-1.7.3-3.2-1.1-4.9-.2-.4-.2-1.5-.7-1.8-.9-.8-.7.3-.5-1.6-1,0-.1,0-.4,0-.4s-1.1-.3-1.6-.7-.6-.7-.9-1-1.5-.9-1.8-.5Z"/>
  <path class="st3" d="M14.2,4.5l1.2.9c.8.4,2.9,1.2,3.5,1.7s.9,1.6.9,1.7c.2.1.9,0,1.3.6.7,1.2,1.8,2.6,2.4,3.8s.1,2.1,1.6,2.5l-.7.8c-.8-.5-1.8-1.4-2.6-1.9s0-.1-.2-.2v-.7s-.5,0-.5,0c0-.1-.2-.2-.2-.2-.1-.2,0-.5-.3-.7s-.5-.1-.6-.2c-.2-.6-.1-1-.8-1.4v.2c-.7-1.2-.8-.6-1.6-1.1s-.4-.6-.7-.8c-1.3-1-3.8-1.8-5.5-1.7-.9,0-2,1.1-2.1-.4s.7-1,1.4-1.4,0-.4,0-.4c0,0,.4,0,.5,0,1.3-.7,1.2-1,3.1-.9Z"/>
  <path class="st4" d="M10.6,5c2.3-1.5,3.8-1.2,6.3-.4.7.2,3.4,1.8,3.9,2.3s1,1.9,1.1,1.9.6,0,.8.2c.5.6,1.9,3.7,2.3,4.6-1.4-.3-1.2-1.5-1.6-2.3s-1-1.9-1.5-2.5-1.5-1.6-1.7-1.8c-1.5-1.2-4.1-2.5-6-2.5s-1.8.2-3.1.9-.5,0-.5,0v-.5Z"/>
  <path class="st4" d="M21.6,14.6c.8.6,1.9,1.4,2.6,1.9s1.8.2,1.3,1c-.5-.3-2.1-.7-2.4-.9s0-.6-.2-.7c-.3-.3-1.6,0-1.4-1.3Z"/>
  <path class="st4" d="M19.7,12.4c.1,0,.4,0,.6.2s.2.5.3.7l-.9-.3c-.1-.2,0-.5,0-.7-1-.6-.5-.3-1-1.2v-.2c.8.4.8.8,1,1.4Z"/>
  <polygon class="st4" points="26.9 17.7 26.9 17.9 25.9 17.9 25.9 17.5 26.9 17.7"/>
  <path class="st4" d="M20.9,13.6h.4s0,.7,0,.7c0,0-.4,0-.5,0s0-.6,0-.7Z"/>
</svg>