<?xml version="1.0" encoding="UTF-8"?>
<svg id="Layer_1" xmlns="http://www.w3.org/2000/svg" width="105.8" height="50.5" version="1.1" viewBox="0 0 105.8 50.5">
  <!-- Generator: Adobe Illustrator 29.2.1, SVG Export Plug-In . SVG Version: 2.1.0 Build 116)  -->
  <defs>
    <style>
      .st0 {
        fill: #dedbe4;
      }

      .st1 {
        fill: #434343;
      }

      .st2 {
        fill: #4e4850;
      }

      .st3 {
        fill: #92a2cb;
      }

      .st4 {
        fill: #b6c2e4;
      }

      .st5 {
        fill: #4d454c;
      }

      .st6 {
        opacity: .5;
      }
    </style>
  </defs>
  <g class="st6">
    <path class="st1" d="M91,23h1c-.3,0-.8-.1-1,0Z"/>
    <path class="st1" d="M2.6,24.3l1-.4c-.1.1-.8,0-1,.4Z"/>
  </g>
  <path class="st1" d="M11.9,49.5c0-.9-1.1-.2-1.8-.6s-.3-.9-.9-1.2c-1.3-.8-6-1.1-7.8-1.5C-.2,39.8-.2,24.9.4,18.1s4.5-6.9,9.8-7.4c7.6-.8,12.4,0,19.7-3.3,4.9-2.2,9.4-6.1,14.8-6.7s23.1-.7,30.2,0c4.7.4,9,7.1,13,9.5,3.6-.3,8.4-.9,11.9-.4s5.3,3.5,5.6,6c.4,3.7.5,26.2-.4,28.9s-1.2,1.5-1.6,2c-.5-.8-1.8-.5-2.6-.5-1.8,0-6.8-.4-8.1,0s-1.7,3.1-3.2,2.9c-.1.8.6.4,1.2.5M15,50.5,43.6,23.1c-3.4,1.5-9.1,5.7-12.5,6.5s-1.5,0-2.4-.8c.4-5.9-.3-12.3,0-18.2-1.6-.6-1.9.8-2.3.9-5.7,1.7-13.5,1.2-19.4,1.6-1.5.2-2.1,1.9-2.3,3.3l-2.4,1.3c.5,2.6-.7,15.6.5,16.8s2.7.8,2.9,2.9c0,1.9-1.9,2.7-3.4,3.4-.2,1.5.2,3,1.3,4h4.4c.7-7.2,7.6-10.8,13.7-6.7,2.6,1.8,1.9,5.9,3.8,6.2h50.4c.9-5,4.4-8.2,9.7-7.7s5.1,4.2,7.4,7.5c.8.4,8.7.5,9.8.2s1-.2,1.1-.8v-5.1s-.7-.7-.7-.7h-3.1c0,0,.5-5.3.5-5.3.7,0,2.4.1,2.9-.2.5-.4.4-.9.5-1.4.3-2.6.3-11.4,0-13.9s-1.9-3.6-3.1-5.1h-12.5c-.5.3-.6.7-.7,1.2-.9,5,1.1,11.9-.5,17-.8-.3-2-.5-2.9-1,.4.6.7,2,1.4,2.7l-.7,1.1h-11c-1.1-1-1-5.6-.5-6.7,1.6-3.3,7.5,1.7,9.4,2.6s1.2.2,1.4.3c-1.5-2.2-5.2-4-7.2-5.8V3.2c0-.2-1.5-.8-1.7-.8h-31.2c-.7.4-.7,1-.7,1.7-.7,5.8.6,13,0,19ZM42.1,2.9c-4.2,1.8-8.5,3.6-12,6.5v18l12-6V2.9ZM78.6,4.9v17.3l7.2,4.8V10.9c-2.5-1.9-4.3-4.6-7.2-6ZM74.3,30.8h9.1l-2.3-1.9c-2.4-.8-4-3-6.8-2.5v4.3ZM101.9,33.2c-1.2.4-1.2,4.2,1.4,3.3s.3-3.8-1.4-3.3ZM3.6,36.2c-.1-.1-1.3-.7-1.3-.6v3.4c1.8.6,2.2-1.7,1.3-2.7ZM15.6,39.5c-6.4,1.4-2.1,10.4,3.9,6.8s.7-7.8-3.9-6.8ZM83.3,40c-6.3,1-2.9,10.1,3.9,6.3,4.5-2.5.6-7.1-3.9-6.3ZM76.2,47.3l-50.1-.3-4.5,1.9c-.2.5,2.5-2.4,2.7-2.3"/>
  <path class="st3" d="M4.7,16.4c-.3,2.3-.4,12.5,0,14.6.7,3.5,4.9,2.2,7,2.2,4.1,0,11.2.2,14.7-1.5s1-1.5,2.2-1.5c.2-.3,0-.9,0-1.4.9.7,1.2,1.1,2.4.8,3.3-.8,9-5.1,12.5-6.5h33.6c2,1.8,5.7,3.6,7.2,5.8-.2-.1-.8,0-1.4-.3-1.9-.9-7.8-5.9-9.4-2.6-.5,1.1-.6,5.7.5,6.7h11l.7-1.1c-.6-.7-1-2.2-1.4-2.7.9.4,2.1.6,2.9,1s.5.8,1.1,1.1c2.9,1.3,8.9,1.1,12.4,1.3l-.5,5.3h3.1c0,0,.7.8.7.8v5.1c-.2.6-.6.7-1.1.8-1.2.2-9,.1-9.8-.2-2.3-3.3-2.7-7-7.4-7.5s-8.7,2.7-9.7,7.7H25.6c-1.9-.4-1.2-4.5-3.8-6.3-6.1-4.1-13.1-.5-13.7,6.7H3.6c-1.1-1-1.5-2.5-1.3-4,1.5-.6,3.4-1.5,3.4-3.4-.2-2.1-2.1-2.2-2.9-2.9-1.2-1.2,0-14.1-.5-16.8l2.4-1.3ZM71.4,32.7c.4-3.1,2-7.3-2.1-7.7-4-.4-21.5-.6-24.9.1s-4.9,2.3-5.5,2.7c-1.1.6-1.7,1.7-2.9,2.1-.6.7.5,2.8,1.1,2.8h34.3ZM67.1,34.6h-3.8v1.4h3.8v-1.4Z"/>
  <path class="st4" d="M43.6,23.1c.5-6-.7-13.1,0-19s0-1.2.7-1.7h31.2c.1,0,1.6.6,1.7.8v19.9h-33.6Z"/>
  <path class="st4" d="M4.7,16.4c.2-1.3.7-3.1,2.3-3.3,5.9-.4,13.8,0,19.4-1.6s.6-1.6,2.3-.9c-.3,6,.4,12.3,0,18.2s.2,1.1,0,1.4c-1.3,0-1.7,1.2-2.2,1.5-3.5,1.7-10.7,1.4-14.7,1.5s-6.3,1.3-7-2.2-.3-12.3,0-14.6Z"/>
  <path class="st4" d="M87.2,29.8c1.5-5.1-.4-12.1.5-17s.2-.9.7-1.2h12.5c1.2,1.5,2.8,3,3.1,5.1s.4,11.3,0,13.9,0,1.1-.5,1.4c-.5.4-2.2.3-2.9.2-3.5-.3-9.5,0-12.4-1.3s-1-1-1.1-1.1Z"/>
  <path class="st1" d="M42.1,2.9v18.5l-12,6V9.4c3.5-2.9,7.8-4.7,12-6.5Z"/>
  <path class="st1" d="M78.6,4.9c2.9,1.4,4.7,4.1,7.2,6v16.1l-7.2-4.8V4.9Z"/>
  <path class="st2" d="M15.6,39.5c4.6-1,8.2,4.3,3.9,6.8s-10.3-5.4-3.9-6.8Z"/>
  <path class="st2" d="M83.3,40c4.5-.7,8.4,3.8,3.9,6.3-6.8,3.8-10.3-5.3-3.9-6.3Z"/>
  <path class="st0" d="M3.6,36.2c.9,1.1.5,3.3-1.3,2.7v-3.4c0,0,1.2.5,1.3.6Z"/>
  <path class="st2" d="M71.4,32.7h-34.3c-.6,0-1.7-2.1-1.1-2.8,1.2-.4,1.9-1.5,2.9-2.1s5.1-2.6,5.5-2.7c3.4-.8,20.9-.5,24.9-.1,4.1.4,2.6,4.6,2.1,7.7ZM70.9,30.3c0-2.8.5-4-2.6-4.3-4.4-.4-18-.6-22.1,0s-6.4,2.6-7.9,4.3h32.6Z"/>
  <rect class="st5" x="63.2" y="34.6" width="3.8" height="1.4"/>
  <path class="st1" d="M70.9,30.3h-32.6c1.5-1.7,5.8-3.9,7.9-4.3,4.1-.7,17.7-.5,22.1,0s2.7,1.5,2.6,4.3Z"/>
  <path class="st1" d="M74.3,30.8v-4.3c2.8-.6,4.4,1.7,6.8,2.5l2.3,1.9h-9.1Z"/>
</svg>