<?xml version="1.0" encoding="UTF-8"?>
<svg id="Layer_1" xmlns="http://www.w3.org/2000/svg" width="34.9" height="31.7" version="1.1" viewBox="0 0 34.9 31.7">
  <!-- Generator: Adobe Illustrator 29.2.1, SVG Export Plug-In . SVG Version: 2.1.0 Build 116)  -->
  <defs>
    <style>
      .st0 {
        fill: #ddc3aa;
      }

      .st1 {
        fill: #f2d5bb;
      }

      .st2 {
        fill: #fee9dc;
      }

      .st3 {
        fill: #8d7c6f;
      }

      .st4 {
        fill: #a58f7e;
      }

      .st5 {
        fill: #f8dbc0;
      }
    </style>
  </defs>
  <path class="st4" d="M26.8,7.5h.5c0-.6.3-1.5-.5-1.8,0,.6,0,1.3,0,1.8Z"/>
  <path class="st4" d="M11.6,9.8c0-.1-.3-.3-.5-.5,0,.2.4.3.5.5Z"/>
  <path class="st4" d="M30.5,27.3c-1.4-.7-3.2-.5-3.6-2.5s-.5-3.7-.5-4.5c0-1.9,1.2-3.5,1.4-4.9s-1.2-4.7,1.2-5.6,2.6,3.2,5.5,1.2c.9-2.3-.7-3-1.2-4.3-.5-1.3-.4-1.6-.8-2.4-.6-1.6-1.6-.9-.2-3.6l-1.6.4-.4-.9h-.8c-1.9,1.9-3.4.6-5.9,2.3-2.5,1.7-2.9,5.9-7.5,5.9s-3.9-2.1-8.4-.8c-4.6,1.3-1.8,1.5-2.6,1.9s-1.7.1-2.5.7-1.5,1.6-1.5,1.7c-.3,1.4.6,2.7.4,3.9-.2,1.2-.8,1.2-.9,1.9-.4,2.4.4,5.2-.5,7.6,1.7.9,1.8-.7,2.3-1.6l-1.4.4c.2-.7.8-1.9.8-2.6s-.5-.5-.3-1.9.4-1.6.5-1.8c.2-2.5-.8-5.4,1.6-7.2,1.1-.2.5.5.7,1.1.4,2.5.2,2.9,0,5.2s0,.6,0,.9.6.2.3.9c-.7,1.4-2.9,2.2-2.1,5,0,0,.5-.2.7-.5.4-.9,0-2.3,1.1-2.7.6,2.5-1.6,3.9-.4,6.3-.8-.2-1.2.1-1.8.5,2.4-.6,2.1,1.6,3,2.3s1.4,0,1.5,0c-.5-.5-.6-1.2-.9-1.8-1-2.2-1.2-3-.9-5.6s1.3-3.1,1.4-4.5c.2-2.5-1.9-6.3.6-8.3,1.6-1.3,3-1,4.7,0-.2-.5-.6-.7-.4-1.3,2.7,0,4,1.7,6.8,1.3s1.7-1.4,2.4-.4c1,1.7-.2,5.4-2.3,5.9-2.1.5-3.5.1-4.3-.7s-.2-2.8-1.8-4.3c.3.9.2,2.3.5,3.2.7,3.1,1.9,1.3,4.1,2.9l-.7,1.1c-1.4.4-4.4-1.4-4.7-3.1-.5,1.5-.2,2.8-.7,3.6s-1.5.7-1.9,1c-2.5,2.4-2,6.2-2.9,9.3,1.2,0,2.7.7,1.8,1.8,0,0,.6,1,1.4-.2-.4-2.5-1.7-.5-1.8-2.9s0-3,1.1-4c.2,0,1.5,2.6,1.7,3.2s-.2.9,0,.9c.3.3,1.1-.3,1.2,1.8h2.9l-.9-1.8h8c.2,0-.3,2,1.8,2.7v-1.3l1.8.4v-1.8c-.2-1.1-1-2.8-.2-4.1l.7,4.1c1.4,2.5,3.7.9,5.9.9l-.4-.3ZM26.4,4.8c.2-.3,1.4-.6,1.7-1,.7-.8.4-2.7,1.9-2.6-.7,2.3.8,2.1,1.3,3s.7,2,1.2,2.8,2,1.4,1.5,3.2c-2.6.1-3.8-3-6.7-2.7.2,1.5.6,1.9-.9,3.2v2.3h-.7c0,0,0-.4-.2-.4-1.3-.6-2.4-.8-3.5-1.2s-.7,0-.6-1c3.3-.3,3-2.9,5-4.5v-.9c-.3.5-2.1,3.2-2.3,3.4-.3.3-3.4,1.8-3.6,1.6-.3-1.9,1.3-4.9,2.7-6s4.4-2.6,4.2-.7c-1.5.2-1,1.5-1.1,1.8l.2-.3ZM25.5,13.8c.4.3,1.5-.1,1.2,1.8s-1.4,1.7-2.1,2.2-3.1,4.1-3.6,3.6c-.5-4.6-2.6-13.1,4.5-7.7h0ZM20.5,26h-7.8c-1.7,0-2.4-7.4,1.3-7.7s3.8.9,5.6.6c0,0,1,7.1,1,7.1Z"/>
  <path class="st3" d="M24.1,26.4v1.8c0,.6.6.8.4,1.3-.9.2-1.5-.2-2.2-.4-2.1-.7-1.6-2.7-1.8-2.7h-8l.9,1.8h-2.9c0-2.1-.9-1.5-1.2-1.8h-2.7c0,2.4,1.4.4,1.8,2.9-.7,1.2-1.2.2-1.4.2h-.9c-.3,0-.6.7-1.5,0s-.6-2.9-3-2.3c-1.1.6-2.5,1-1.4,2.4s8.7,2,10.1,2.1c2.9.2,6.9.2,9.8,0s11-1.4,11.3-1.9c.7-.9-.6-2.3-1.3-2.7-2.2,0-4.5,1.6-5.9-.9h-.5l.2.2Z"/>
  <path class="st1" d="M5.4,29.1c.8-3.3.3-7.4,3-10s1.6-.2,2-1.1.1-2.4.7-3.9-.4-1.3,1.5-1c-.2-1-.2-2.4-.5-3.4s-.4-.3-.5-.5c-1.8-1.1-3.2-1.4-4.9,0-2.6,2.1-.4,6.2-.6,8.9-.1,1.4-1.3,2.7-1.5,4.8s0,3.7.9,6h-.1Z"/>
  <path class="st2" d="M11.6,9.8c1.6,1.5.8,3.3,1.8,4.3s3.2.9,4.3.7c2.1-.4,3.3-4.2,2.3-5.9s-1.6.2-2.4.4c-2.9.5-4.2-1.1-6.8-1.3-.2.7.3.9.4,1.3.2.1.3.3.5.5Z"/>
  <path class="st5" d="M25.5,13.8c-7-5.5-5,3.1-4.5,7.7.5.5,2.9-3,3.6-3.6,0,0,.9-4.1.9-4.1Z"/>
  <path class="st1" d="M26.4,10.7c1.5-1.3,1.1-1.6.9-3.2h-.5c-.3,1.5-.5,1.4-.5,3.2h0Z"/>
  <path class="st1" d="M27.3,7.5c3-.3,4.2,2.8,6.7,2.7.5-1.8-1-2.2-1.5-3.2s-.7-1.9-1.2-2.8-2-.7-1.3-3c-1.6-.2-1.3,1.8-1.9,2.6s-1.5.7-1.7,1,0,.6,0,.9h.5c.7.3.4,1.2.5,1.8h-.2ZM29.3,3.5v.5c-.3-.2-.3-.3,0-.5Z"/>
  <path class="st1" d="M26.4,4.8c.2-.3-.4-1.6,1.1-1.8.2-1.9-3.5,0-4.2.7-1.4,1.2-3.1,4.1-2.7,6,.2.2,3.3-1.3,3.6-1.6s1.9-2.8,2.3-3.4h0Z"/>
  <path class="st5" d="M26.4,5.7c-2,1.6-1.7,4.2-5,4.5,0,.9,0,.7.6,1,1.1.5,2.2.6,3.5,1.2l.9-.5v-1.4c0-1.7,0-1.6.5-3.2s0-1.2,0-1.8h-.5v.2Z"/>
  <path class="st0" d="M3.2,17.9c-.4.8-.8,1.7-1.6,2.2l-.2-.4c-.2,1.4.3,1.1.3,1.9s-.6,1.8-.8,2.6l1.4-.4c-.9-2.7,1.4-3.6,2.1-5s-.3-.8-.3-.9c0,0-.9,0-.9,0Z"/>
  <path class="st0" d="M1.8,17.9h1.4c.2-.4-.5-1.2.9-.9.2-2.3.4-2.7,0-5.2s.4-1.3-.7-1.1c-2.4,1.8-1.4,4.7-1.6,7.2Z"/>
  <path class="st0" d="M12.1,12.9c-1.7-.3-1.1.2-1.4.9.3,1.7,3.2,3.5,4.7,3.1l.7-1.1c-2.2-1.7-3.3.2-4.1-2.9h0Z"/>
  <path class="st0" d="M25.5,13.8l-.9,4.1c.6-.6,1.7,0,2.1-2.2s-.8-1.5-1.2-1.8h0Z"/>
  <path class="st0" d="M24.1,28.2l-1.8-.4v1.3c.8.3,1.4.6,2.2.4.2-.5-.4-1-.4-1.3Z"/>
  <path class="st5" d="M1.8,17.9c0,.2-.4,1.1-.5,1.8l.2.4c.8-.6,1.2-1.4,1.6-2.2h-1.4,0Z"/>
  <path class="st5" d="M4.1,17c-1.4-.3-.7.5-.9.9h.9v-.9Z"/>
  <path class="st0" d="M5.4,27.8c.3.6.4,1.3.9,1.8h.9c.9-1.1-.6-1.9-1.8-1.8Z"/>
  <path class="st1" d="M25.5,12.5c0,0,0,.4.2.4h.7v-.9l-.9.5Z"/>
  <path class="st4" d="M29.3,3.5c-.3.2-.3.3,0,.5v-.5Z"/>
</svg>