<?xml version="1.0" encoding="UTF-8"?>
<svg id="a" xmlns="http://www.w3.org/2000/svg" width="74.751" height="100.735" version="1.1" viewBox="0 0 74.751 100.735">
  <!-- Generator: Adobe Illustrator 29.2.1, SVG Export Plug-In . SVG Version: 2.1.0 Build 116)  -->
  <path d="M13.983,67.299c-.78-2.725-.286-6.695-2.201-9.072-.977-.871-2.158,1.323-3.251,2.744-.725.902-1.09,2.014-1.716,2.964-.986,1.416-3.238,1.816-4.807,1.439-2.71-.751-2.051-4.272-1.839-6.467,1.019-6.845,5.298-10.661,10.259-15.132.915-.774,2.467-1.57,1.47-2.791-.573-.788-1.53-1.57-2.214-2.382-6.409-7.177-7.085-23.639-1.344-20.148,1.759,1.072,2.494,2.949,3.62,4.638.91,1.364,2.085,2.801,3.33,4.115,1.476,1.55,4.07,4.149,2.855,1.043-2.506-6.499-8.988-15.644-4.538-21.394.728-.961,1.893-1.795,3.074-1.219,4.602,2.908,10.072,10.738,13.064,15.187.625.953.758,3.214,1.967,3.232,1.826-.994,1.3-3.634,1.371-5.531-.154-5.975-2.488-24.681,6.207-16.385.615.718,1.097,1.552,1.354,2.46,1.613,5.818,1.486,11.598,2.396,17.438.212,1.307.371,2.604,1.326.57.959-1.894,2.041-4.041,3.01-5.958.807-1.73,1.453-2.17,2.876-3.047,3.012-1.881,5.925-5.217,9.164-5.789,1.522-.341,2.628.989,3.055,2.277.968,2.011.055,4.029-.953,5.762-1.245,2.51,2.188.994,3.373,1.325,1.197.188,1.656,1.541,1.701,2.88-.037,1.224-.335,2.194.425,2.3,2.662-.118,7.174-2.071,7.605,2.114.019.262.012.528-.019.789-.608,4.576-6.208,5.189-9.49,8.249-.924.808-1.406,2.239-.082,2.929,1.553.766,3.547.873,4.989,1.955,2.401,1.733,3.965,4.553,4.522,7.36.215,1.254.359,2.652-.952,3.361-1.521.728-3.83.502-5.535.35-1.414-.204-1.225-.729-2.289-1.515-1.302-1.009-2.445-.591-2.433,1.161-.259,7.521,5.945,15.816,1.154,22.104-1.009,1.073-2.934.841-4.028,1.345-.672.33-1.044.893-1.281,1.639-.571,2.15-.541,7.169-3.139,10.708-1.66,2.497-3.7,4.323-6.279,5.591-10.727,5.006-24.735,3.831-32.525-5.973-3.861-4.878-1.141-11.599-3.212-17.057l-.04-.171ZM41.204,37.408c-.885-10.775,1.634-24.448-4.683-33.93-1.536-2.062-1.531.954-1.589,2.53-.088,5.578,1.215,15.491-.525,18.677-.612,1.19-.863,2.603-.815,4.002-.041,2.376,1.352,4.036,1.773,6.263.703,3.231-.318,7.822,1.015,10.82.541,1.133,1.976,3.092,2.692,1.03,1.568-2.617,1.977-6.314,2.13-9.216l.002-.175ZM33.277,46.871c3.159-13.792-8.127-27.392-16.396-37.953-.457-.601-1.246-1.233-1.904-.668-.601.464-1.032,1.647-.906,2.438,3.708,11.174,10.024,21.726,10.951,33.739.183,1.835.105,4.949,1.519,6.143.929.436,1.789-1.192,2.615-1.592,1.076-.671,3.236-.811,4.022-1.966l.098-.142ZM48.443,50.129c.747-12.482,4.744-26.292,11.395-36.36.838-1.071.741-2.332-.767-2.466-1.371-.157-2.142,1.196-3.335,2.028-9.837,4.558-11.518,17.909-12.798,27.968-.1,1.546-1.23,2.412-1.54,3.946-.373,2.685-1.778,8.257,2.332,8.422.674.01,1.372-.233,2.001-.474,1.881-.744,2.776-1.104,2.705-2.882l.007-.182ZM62.031,22.386c1.92-1.975,3.201-4.177-1.21-1.152-2.485,1.851-5.949,4.905-4.672,6.439,2.992.793,4.542-3.261,5.784-5.161l.097-.126ZM22.225,39.532c-1.804-5.024-8.627-8.848-11.491-13.765-.563-.958-3.191-4.806-4.3-3.456-.402.717-.345,2.645-.223,4.641.095,1.109.618,2.086,1.371,2.865,4.617,4.944,5.307,12.361,12.391,13.052,2.303.341,2.641-1.256,2.288-3.173l-.036-.163ZM64.337,30.676c.912-.97,2.028-1.318,3.253-2.109,15.415-8.913-15.43-2.464-16.029,13.888.12,2.275-.887,4.537-.901,6.742.285,1.538,2.462.725,2.752-.453,1.231-4.056,3.109-7.985,5.52-11.827,1.47-2.485,3.142-4.429,5.299-6.136l.106-.105ZM65.388,38.394c-.823-.342-2.18-.095-3.304-.386-.215-.042-.474-.066-.693-.045-.923.229-1.357,1.776-1.776,2.623-1.277,3.237,2.052,1.443,5.14,2.901.472.227.975.54,1.364.952.374.389.627.859.869,1.311.68,1.515,2.638,1.631,4.349,1.638,1.346.046.979-1.264.629-2.17-1.1-2.708-4.107-5.406-6.436-6.767l-.141-.058ZM20.196,45.286C11.788,40.551.722,54.365,2.836,62.98c.36.233,1.124-.662,1.452-1.088,5.328-6.839,7.059-10.131,16.499-9.865.929-.055,2.255.358,2.916-.366.509-2.381-1.298-5.09-3.336-6.275l-.17-.1ZM59.724,46.927c-.583-1.69-1.689-2.431-1.951.049-.134,1.637.455,3.903,2.348,3.702.671-.115.46-.736.545-1.318.128-.923.043-2.025-.887-2.361l-.054-.073ZM34.968,49.452c-11.663.896-5.485,17.106-4.087,24.594,1.849,5.832,3.058-3.977,3.095-6.185.026-1.293.571-2.382,1.128-3.509.98-2.26.559-5.416,1.242-7.496.418-1.136,1.422-2.013,1.758-3.188.619-1.994-.679-4.113-2.93-4.207l-.206-.011ZM60.768,68.786c4.456,6.081,4.094-8.685-1.406-14.922-1.139-1.104-2.605-2.279-4.131-2.503-.654-.004-1.295.341-1.886.606-.957.558-4.819,1.191-3.622,2.343,1.945.851,3.485,2.123,4.639,4.046,1.081,1.818,2.384,3.249,3.687,4.751,1.144,1.723.642,4.702,2.612,5.595l.107.085ZM26.256,57.849c.02-1.095-.001-4.471.005-4.967,0-.059-.004-.009-.026.116-.412,2.231-3.989,1.234-5.362,1.419-.291.082-.135.194.132.433,1.213.962,3.796,3.67,5.228,3.039l.023-.038ZM23.165,58.528c-2.156-.76-3.38-3.181-5.57-3.923-.692-.215-1.538-.339-1.128.301,2.043,2.686,6.177,6.34,9.368,7.28.739.22.516-1.179.44-1.674-.122-.458-1.008-.311-1.437-.508-.724-.222-1.039-1.074-1.547-1.399l-.125-.076ZM48.785,56.2c-1.839-1.453-5.027-.253-7.303-.973-.248-.062-.562-.159-.8-.064-.672.352-.954,1.333-1.392,2.034-.478,1.02-1.591,2.952-.302,3.402.854.27,4.224-.393,6.593-1.184.775-.481,1.354-1.336,2.301-1.558,1.338-.328,1.893-.28,1.01-1.544l-.107-.113ZM14.627,56.411c-4.908-1.647,4.748,9.237,8.123,10.581,1.177.449,3.937,1.453,4.747,1.254.192-.091.048-.349-.267-.659-.433-.417-.845-.895-1.076-1.447-1.403-3.455-8.725-5.493-11.405-9.636l-.123-.093ZM49.297,61.302c.837-.61,2.406-.842,2.28-2.033-.085-.316-.289-.793-.716-.81-.582.264-.861.973-1.679,1.209-2.025.754-4.872.881-6.316,2.441-1.507,1.092-5.302-.357-5.086,2.004.052.262.381.584.83.689,1.71.321,2.286-1.28,3.903-1.504,2.378-.395,4.379-.351,6.601-1.892l.183-.106ZM55.453,63.281c-1.162-.893-3.7-.511-5.088.187-1.143.489-2.026,1.325-3.243,1.643-3.946.996-10.19-.716-10.958,3.397-.15.75.214,1.466,1.042,1.578,2.94.128,5.547-1.373,8.631-1.411,1.736-.48,9.964-2.898,9.684-5.312l-.069-.083ZM49.136,69.827c-4.644,3.705-13.377-.102-13.921,5.566-.178,2.793-1.934,2.352-4.327,2.332-2.108.106-2.362-1.261-2.754-3.104-.405-1.771-.214-3.452-1.878-4.249-2.751-1.279-6.852-3.433-9.336-5.903-1.163-1.185-1.218-.687-.928.661,1.495,6.186,1.035,12.768,3.456,18.677,6.5,10.706,23.896,9.371,32.797,2.761,5.012-4.225,4.978-13.702,4.526-19.763-.322-.521-1-.058-1.463.106-2.217.994-4.482,1.197-6.03,2.809l-.141.108Z" fill="#010101"/>
  <path d="M23.761,37.276c-1.062-3.472-1.994-6.212-3.487-10.373-1.997-5.565-6.909-12.924-5.357-18.265.449-1.537,1.461-.69,2.145.276,8.128,10.338,17.968,23.151,16.619,36.642-.071.908-.351,1.366-1.116.865-1.484-1.006-4.388-1.154-5.664-2.687-1.547-1.84-.857-4.537-2.539-6.296l-.601-.161Z" fill="#fff"/>
  <path d="M36.14,41.373c-.115-.362-.531.196-.523-.262.124-3.675-2.309-10.508-2.266-13.947-.121-1.819.978-2.576,1.22-4.359.206-3.897.171-13.353.57-17.866.117-1.223.247-2.154.705-2.028,5.66,4.005,9.185,44.054.381,42.21l-.087-3.748Z" fill="#fff"/>
  <path d="M13.02,37.651c-2.075-2.446-3.719-6.099-6.209-8.438-.535-.583-.785-1.305-.832-2.097-.097-1.688-.366-4.124.519-5.046.631-.656,2.496,1.076,2.88,1.695,3.581,5.577,9.343,9.434,12.579,14.76.159.304.223.578.133.782-.134.291-.504.387-.841.419-1.675.102-3.2-.541-4.745-1.061-1.006-.422-2.399-.484-3.342-.928l-.143-.085Z" fill="#fff"/>
  <path d="M19.869,45.429c-.002.327-.506.677-.815.906-3.817,2.892-6.626,5.795-9.937,9.421-1.402,2.177-3.07,4.997-5.066,6.573-.598.609-1.359,1.476-1.592.059-1.147-8.215,9.414-21.579,17.554-17.092l-.144.133Z" fill="#fff"/>
  <path d="M35.53,49.48c2.311,5.664-2.586,14.371-5.023,19.937-.366.71-.559.394-.7-.176-1.708-6.403-5.195-19.753,4.154-19.586l1.569-.174Z" fill="#fff"/>
  <path d="M51.615,44.216c-.925-9.46,9.668-18.902,18.928-19.687.453-.049,1.318-.065,1.455.282.255.496-.989,1.653-1.945,2.423-1.297,1.03-2.803,1.864-4.352,2.468-1.433.529-2.782.882-3.867,1.892-3.47,3.22-6.001,7.801-9.18,11.804-.242.3-1.508,3.093-1.781,3.031l.743-2.213Z" fill="#fff"/>
  <path d="M35.636,49.628c.859-.464,2.564,1.146,2.634,2.31.487,1.917-1.23,3.281-1.929,4.866-.547,1.697-.358,4.195-.821,6.231-.192,1.233-.946,2.151-1.325,3.294-.428,2.63-.564,6.574-1.492,8.527-.274.664-.577,1.074-.89,1.077-.223.004-.453-.204-.681-.666-.626-1.509-1.118-3.352-.959-5.052,2.14-6.186,6.13-12.488,5.262-19.014-.052-.47-.167-1.224.121-1.505l.081-.067Z" fill="#d3d3d3"/>
  <path d="M52.964,52.357c3.488-3.51,8.71,4.318,10.025,6.276,1.34,2.539,1.569,11.768-.392,11.549-1.001-.112-2.708-.679-2.572-1.785.716-6.423-1.317-10.654-5.644-14.926-.323-.328-.778-.777-.803-1.186l-.613.072Z" fill="#fff"/>
  <path d="M65.528,38.453c2.578,1.489,6.421,5.029,6.763,8.04.138,1.497-2.511.77-3.427.67-1.12-.215-1.734-.991-2.19-1.971-.406-.746-1.17-1.363-1.92-1.702-3.087-1.457-6.419.331-5.141-2.904.417-.847.855-2.396,1.777-2.622.311-.057.686.049,1.078.123.914.162,2.167,0,2.92.308l.141.058Z" fill="#fff"/>
  <path d="M53.469,52.387c4.727,4.442,8.424,8.46,7.226,15.452-.31,1.093-.907.355-1.226-.371-.755-1.677-1.268-4.094-3.803-6.568-1.449-1.295-2.124-4.319-3.765-5.374-.76-.695-2.852-1.518-2.25-2.297.699-.541,2.766-1.097,3.671-.899l.147.058Z" fill="#d3d3d3"/>
  <path d="M20.343,45.558c2.373.901,3.152,3.181,3.67,5.608.143.621-.049,1.203-.79,1.162-4.016-.162-10.358.204-13.932,3.342-.536.471,3.746-4.585,4.067-4.96,2.166-1.834,4.384-3.779,6.822-5.154l.163.002Z" fill="#d3d3d3"/>
  <path d="M24.142,37.26c.819-.313,1.378,1.363,1.419,2.18.24,6.453,4.59,4.381,7.679,6.906.262.351.198.729-.131,1.024-1.016.917-2.932,1.075-3.943,1.85-.669.536-1.606,2.058-2.683,1.566-1.493-1.596-1.447-4.501-1.872-6.573-.236-1.921-.381-3.895-.621-5.923-.026-.284-.068-.763.083-.956l.069-.074Z" fill="#d3d3d3"/>
  <path d="M65.255,29.78c-5.23,7.235-10.446,12.341-11.773,19.074-.087.308-.21.587-.391.802-.412.536-1.243.619-1.846.364-2.921-1.597,2.57-7.92,3.588-9.498,2.403-3.922,5.378-9.142,9.463-10.742h.959Z" fill="#d3d3d3"/>
  <path d="M42.678,42.332c.241.703.741,3.14,1.42,3.826,1.621,2.105,4.521,3.785,4.315,5.776-.339.562-.732.515-1.202,1.121-.164.144-1.26.072-1.433.205-.993.539-3.054.284-3.961-.129-.176-.111,1.035.534-.358-.452-2.244-1.588-1.405-8.841.783-9.911l.436-.436Z" fill="#d3d3d3"/>
  <path d="M41.177,37.276c.06.074.072.19.061.337-.268,2.005-.478,5.242-1.272,7.193-.816,2.006-.689,1.528-1.144,1.97-.215.208-.057.636-.151.918-2.867-.387-2.674-4.047-2.981-6.329-.099-1.045,1.372-.649,1.862-1.178,1.136-.951,1.644-3.198,3.553-2.972l.074.061Z" fill="#d3d3d3"/>
  <path d="M12.255,36.318c1.484-.057,4.303,1.656,5.405,2.876,1.199.604,3.393-.279,4.533.263,1.016.405.468,2.077.221,3.009-.51.613-1.638.434-2.313.477-3.338-.04-5.659-1.597-7.155-5.056l-.69-1.569Z" fill="#d3d3d3"/>
  <path d="M61.934,22.512c-1.15,1.693-2.13,4.593-4.47,5.18-.614.15-1.345.247-1.562-.34-.866-2.918,10.378-10.398,7.452-6.518-.398.534-.886,1.05-1.322,1.553l-.097.126Z" fill="#fff"/>
  <path d="M58.512,11.397c-1.438.504-2.633,2.257-4.216,2.917-9.258,5.15-10.768,19.547-11.545,29.234l.034.198c1.949,5.62,3.028,7.359,3.901,6.477.162.343.345.677.56.995.721.969,1.163.601,1.317-.597.319-2.441.744-5.378.828-7.766l.174-.697c.112-.775.347-2.108.567-3.175.216-1.385.818-3.349.734-4.076,1.849-6.749,4.682-14.725,9.595-21.864.499-.724-1.248-1.808-1.949-1.646Z" fill="#fff"/>
</svg>