<?xml version="1.0" encoding="UTF-8"?>
<svg id="a" data-name="Layer 1" xmlns="http://www.w3.org/2000/svg" width="56.202" height="44.089" viewBox="0 0 56.202 44.089">
  <path d="M56.202,27.159l-1.636-.935c-.781,1.662-.091,3.12-.004,4.793.102,1.975-.068,3.603-.573,5.499-2.386.899-3.095,1.977-5.144-.022-1.255-1.225-2.412-3.571.05-4.131,1.749-.398,1.46.828,2.041,2.039,1.237-1.643-.093-2.501-.529-3.679-.124-.334.006-.76-.128-1.166-.112-.339-2.228-1.193-2.706-1.843-.668-.91-2.248-6.381-2.633-6.6-.439-.25-1.468.658-1.515,1.009-.037.275.218.71.133,1.152-.725,3.775-1.919,6.21-1.642,10.321.031.454.179,1.981.284,2.288.268.787,4.181,1.123,5.164,1.388,7.18,1.935,3.261,3.998-1.399,5.021-9.822,2.158-23.197,2.223-33.174.989-2.604-.322-8.462-1.111-10.559-2.427-3.03-1.901,1.319-2.668,1.726-3.232.475-.659.447-5.67.524-6.837.073-1.105.462-2.383.48-3.5.027-1.717-.711-3.304-.485-5.031-.74.428-.365,1.709-.489,2.429-.21,1.223-.591,2.908-1.14,4.003-.241.481-1.156,1.35-1.174,1.442-.172.89.256,2.167-1.054,2.641-.982-.971-.626-1.982-.087-3.069.395-.796,1.598-1.528,1.897-2.128.507-1.021,1.468-7.202,1.495-8.511.021-.99-.434-1.978-.379-3.232.103-2.343,1.426-8.459,3.346-9.86.056-.041.804-.401,1.154-.616,5.831-3.59,10.8-2.188,17.173-1.591.921.086,1.865.053,2.778.154.72-.238,2.516-2.663,3.096-2.928.839-.384,6.503-.879,7.436-.699.652.126,2.201,1.532,2.997,1.564.581.024,1.505-.361,2.16-.396.976-.052,2.651.183,3.459-.052.689-.201.745-1.222,1.449-1.355.332-.063,1.279-.069,1.595.008.151.037.12.325.353.443.149.076.484-.047.686.071.125.072.194.46.418.642,1.036.843,1.117.842,1.594,2.031.032.081.343.085.382.241.106.431.065,2.009-.004,2.512-.054.393-.469.665-.479,1.176-.01.52.422,1.011.497,1.633.483,3.999-.076,6.892.918,11.237.08.352-.093,1.104.044,1.253.058.063.444-.06.685.171.074.071.921,1.733.921,1.836v3.856ZM53.159,16.642c-.294-2.786-.128-6.061-.482-8.516-.045-.312-1.256-3.712-1.393-3.924-.147-.226-3.011-1.619-3.456-1.749-1.617-.472-3.061.092-4.731-.066-.137.715.65.456.909,1.077.569,1.363-1.657-.363-1.874-.467-.772-.37-3.805-1.913-4.319-2.001-.374-.064-5.899.448-6.182.576-.411.186-3.548,3.431-3.648,3.827-.71,2.811-.099,3.398,1.069,5.634.081.156.146.309.234.467.217.391.131.851.574,1.415.552.703,1.521,1.121,2.235,1.623.052.037.18-.036.234,0,1.6,1.069,2.018,1.127,3.511,1.87.047.023-.048.127.702.467.739.335,1.313.643,2.106.935.16.059.312.183.468.234.859.281.666.336,1.638.234.711-.075,1.333-.213,1.656-1.023.247-.62.315-1.257.231-1.91-.045-.348-1.698-1.928-1.838-2.374-.882-2.812.711-6.243-3.732-7.023-1.197-.21-3.808-.561-4.977-.523,1.246-1.11,3.898-.479,5.431-.165.64.131,1.19.471,1.824.633.529.547,1.622,1.547,1.816,2.276.327,1.226-.16,3.119.418,4.491.041.098,1.044,1.729,1.115,1.808.417.469.99.379,1.332.539.173.081.224.012.468.234-1.379.217-1.373,1.195-1.118,2.403.087.412.96,2.578,1.585,2.036-.526-1.032-.048-1.945,0-2.803l.468-.002.469,3.04,1.884.37c.477-.35-.096-1.565.688-1.772.2,1.419,2.274,3.141,2.696,4.216.269.685-.744,3.814-.603,5.026.117,1.007.635.693.719.807.118.161.132.838.464,1.054l-.714.479c.828,1.744,1.66,2.914.745,4.874l-1.634.105c-.378-.899-.003-2.27-1.452-1.738-1.024.73.858,3.568,2.452,3.403.203-.021,1.72-.605,1.876-.717.789-.568.583-2.686.62-3.589.013-.31.362-.559.365-.717.008-.363-.595-2.655-.616-3.388-.004-.156.002-.312,0-.467-.008-.527.111-.912.234-1.402.018-.073-.018-.16,0-.234.046-.194.355-.461.468-1.168.052-.326-.005-.408,0-.467.032-.375.006-.788,0-1.168-.004-.268.047-.267,0-.701-.025-.227.031-.477,0-.701-.039-.284-.199-.511-.234-.701-.072-.392-.17-.768-.234-1.168-.043-.27-.21-.531-.234-.701-.058-.41-.179-.79-.234-1.168-.022-.149.021-.318,0-.467-.031-.224.027-.475,0-.701-.018-.152.016-.315,0-.467ZM51.419,2.019c-.847-.766-1.575-1.223-2.786-1.046l-.377.598c.014.382,3.182,1.488,3.629,1.969.557.6.145,1.512.803,1.883.193-1.465-.214-2.449-1.269-3.404ZM26.946,8.696c-.167-1.434.83-2.67-.392-3.976-2.757-.153-5.646-.811-8.375-.941-3.513-.168-6.979.453-9.796,2.503-.191.139-.598.048-.848.201-1.329.815-2.914,6.552-3.055,8.175-.35,4.034,1.248,8.303,1.381,12.171.091,2.65-.791,6.925-.915,9.912-.027.643.112,1.26-.237,1.867l1.058.469c.484-1.442,1.305-.656,2.019-.818.413-.094.91-.824,1.607-.585-.39-.634-.834-.677-.948-1.504-.245-1.78.534-6.282,1.753-7.617.553-.605,1.169-.736,1.456-1.004.183-.171,1.101-1.369,1.15-1.547l-2.473-10.06c2.409,1.566,1.756,7.179,3.108,8.814.12.145,1.057.673,1.267.72,2.307.514,6.739.438,9.065.033.285-.05,2.522-1.242,2.597-1.374-.261-1.149.199-2.263.339-3.406.168-1.367-.064-2.059.447-3.537.124-.357-.211-.671.491-.548.321,1.946-.374,3.895-.463,5.727-.147,3.008,2.119,6.853,2.111,10.525-.005,2.307-1.464,5.03-1.187,7.427,1.567,1.024,2.309,1.087,3.285-.544,1.068.47,1.338.004,2.059-.166.679-.161,1.372-.078,1.931-.661.08-.739-.63-.752-1.001-1.34-1.256-1.988-.096-3.137.466-5.016.149-.499.007-1.105.164-1.706.213-.814,1.722-2.789,1.759-2.959.43-1.948-.382-5.171.238-7.315.065-.225,1.069-1.375,1.171-.579.036.276-.415.749-.458,1.175-.033.325-.091,2.685.109,2.679,1.984-.706,3.935-.985,5.235-2.737.169-2.534-3.018-1.502-4.704-2.006l-7.987-4.177c-.88-.776-3.308-5.224-3.43-6.274ZM49.413,27.858c-.548-1.318-.985-2.675-1.477-4.015-.125-.34-.427-.591-.524-.879-.341-1.014.311-2.291-1.508-2.115l2.231,6.07,1.278.938ZM49.515,22.147c-.355-.319-1.207-1.271-1.507-.248l1.872,4.557c.15-1.774,1.238-2.87-.365-4.309ZM42.624,23.186c-1.984.791-4.154.68-4.803,3.029-.284,1.03-.279,2.238-.444,3.296-.075.482-.484,1.046-.502,1.276-.122,1.611,1.096,4.433.823,6.526-.103.786-.823.919-.121,1.78,1.242,1.521,4.351.42,5.489-.832l-1.861-2.327.029-7.009,1.389-5.738ZM55.966,25.755c.127-.13-.407-2.24-.933-2.335l.034,2.065.899.27ZM26.707,25.056c-2.281,1.258-4.374,1.574-6.983,1.433-1.006,3.111-.688,5.921-.265,9.082l8.647-.478c.82-3.339-.284-6.849-1.399-10.037ZM18.755,26.692c-1.343-.089-2.675-.432-4.032-.168-1.156.225-1.612,1.49-2.286,2.381-.017.711,1.395,1.938,1.579,2.632.342,1.289-.206,3.057.192,4.482.572,2.05,4.046,2.705,5.714,1.65-.188-.92-1.06-1.056-1.302-2.083-.158-.671-.568-4.101-.575-4.818-.006-.642.869-3.93.709-4.078ZM13.137,36.039v-4.557c0-.144-1.587-1.885-1.52-2.453l-1.642,1.398c-.3,1.971-.782,3.822-.583,5.847l3.746-.235ZM36.776,35.806l-.03-1.257-.67-3.182-1.408,4.203,2.108.237ZM34.903,40.479c-.77-.345-.907-.489-1.726-.022l-.113.924,1.701.057c.296-.209.093-.674.137-.959.253.113.208.418.395.463,1.899.459,1.297-2.241-.176-1.292-.296.19-.177.562-.219.829Z" fill="#2e3132"/>
  <path d="M4.945,36.74c.124-2.987,1.005-7.262.915-9.912-.132-3.867-1.731-8.137-1.381-12.171.141-1.623,1.726-7.36,3.055-8.175.25-.153.657-.062.848-.201,2.818-2.05,6.283-2.671,9.796-2.503,2.729.13,5.618.789,8.375.941,1.223,1.306.226,2.542.392,3.976-.791-.027-.664-.152-.709.579-.136,2.204,1.112,3.933-.082,6.587-.168.375-.996.58-1.187.783-.325.346-.317.837-.84,1.273-.443.369-3.135,1.51-3.728,1.652-1.581.38-3.802-.011-5.46.061-.975-.488-1.178-1.656-1.981-2.277-.315-.244-.99-.323-1.167-.539-.194-.237-.103-.736-.545-1.209-.417-.448-1.218-.749-1.827-.569-.347.217-.332,3.665-.263,4.293.128,1.169.995,3.214,1.159,4.452.105.796.071,2.162-.05,2.964-.255,1.689-2.113,2.709-2.457,4.791-.401,2.431,1.132,5.785-2.864,5.203Z" fill="#d3e9eb"/>
  <path d="M26.946,8.696c.122,1.051,2.55,5.499,3.43,6.274l7.987,4.177c1.686.504,4.873-.528,4.704,2.006-1.3,1.752-3.25,2.031-5.235,2.737-.2.006-.141-2.354-.109-2.679.043-.427.493-.899.458-1.175-.102-.796-1.106.354-1.171.579-1.256.142-.986-.609-1.324-.948-.456-.456-4.078-2.976-4.537-3.132-.552-.189-2.33-.362-2.532.257.051,1.32-.188,2.897-.04,4.181.319,2.759,1.591,4.504,2.184,6.934.493,2.018.544,4.764.4,6.849-.084,1.219-1.346,4.328.232,5.023-.976,1.63-1.718,1.568-3.285.544-.277-2.397,1.182-5.121,1.187-7.427.008-3.672-2.258-7.517-2.111-10.525.089-1.831.784-3.781.463-5.727-.702-.123-.367.191-.491.548-.512,1.478-.279,2.17-.447,3.537-.141,1.143-.601,2.258-.339,3.406-.075.132-2.312,1.324-2.597,1.374-2.326.405-6.758.481-9.065-.033-.21-.047-1.148-.575-1.267-.72-1.353-1.635-.699-7.249-3.108-8.814l2.473,10.06c-.049.179-.967,1.377-1.15,1.547-.287.268-.904.399-1.456,1.004-1.219,1.335-1.998,5.837-1.753,7.617.114.826.558.87.948,1.504-.696-.239-1.193.491-1.607.585-.713.162-1.535-.624-2.019.818l-1.058-.469c.348-.606.21-1.224.237-1.867,3.996.582,2.463-2.772,2.864-5.203.343-2.082,2.202-3.102,2.457-4.791.121-.803.156-2.169.05-2.964-.164-1.238-1.031-3.283-1.159-4.452-.069-.629-.084-4.076.263-4.293.609-.18,1.409.121,1.827.569.441.474.35.972.545,1.209.177.216.852.296,1.167.539.803.621,1.006,1.789,1.981,2.277,1.657-.071,3.879.32,5.46-.061.594-.143,3.286-1.283,3.728-1.652.523-.436.515-.927.84-1.273.191-.204,1.018-.409,1.187-.783,1.194-2.654-.054-4.383.082-6.587.045-.731-.083-.606.709-.579ZM28.116,15.941c-.151.019-.314-.014-.466.001-.066.487-.023.53.465.464.016-.152-.018-.314.001-.466.151-.019.314.014.466-.001.066-.487.023-.53-.465-.464-.016.152.018.314-.001.466Z" fill="#a9bbbd"/>
  <path d="M53.159,17.11c.027.226-.031.477,0,.701-.573.036-1.698-.242-1.872.467-.985-.079-.823-.348-1.637-.469.013-.149-.035-.346,0-.466.215-.05.532.055.802-.013.94-.237,1.504-.83,2.708-.22Z" fill="#d3e9eb"/>
  <path d="M29.052,11.033c-1.168-2.236-1.779-2.822-1.069-5.634.1-.396,3.237-3.64,3.648-3.827.283-.128,5.808-.64,6.182-.576.514.088,3.547,1.631,4.319,2.001.217.104,2.442,1.83,1.874.467-.259-.621-1.046-.362-.909-1.077,1.67.158,3.114-.406,4.731.066.445.13,3.309,1.523,3.456,1.749.138.212,1.348,3.612,1.393,3.924.355,2.455.188,5.73.482,8.516-.732-.51-3.29-.077-3.511.701-.196.046-.412.327-.585.455-.529-.096-.451-1.369-.933-1.154-.35.156-.689,2.486-.838,3.019l-1.389.25-.469-3.04-.468.002c.033-.594.002-1.208-.468-1.636-.244-.222-.295-.153-.468-.234l-1.792-1.945c-1.202-2.701,1.914-4.28,1.221-6.95-.802-.778-1.748.311-2.336.256-.094-.009-1.448-.393-1.774-.476-.634-.161-1.184-.501-1.824-.633-1.533-.314-4.185-.945-5.431.165-1.4.046-3.364.3-3.041,2.102.695-.079.693-.732,1.419-1.025.582-.235,1.343-.303,1.971-.383l.133.682,2.328.261v.699c-2.236-.251-5.03,1.118-5.852,3.273ZM46.373,14.07c.835.07.907-1.013.488-1.541-.431-.544-1.493-.28-2.127-.326.041.714,1.075,1.32,1.636.932l.003.935ZM50.116,15.476c-.498-.037-1.729.191-1.637.931.616.051,1.326-.425,1.637-.931Z" fill="#d3e9eb"/>
  <path d="M53.159,18.278c.055.378.176.759.234,1.168l-1.888-.102c-.248-.171-.285-.796-.219-1.067.616.049,1.254-.034,1.872,0Z" fill="#d3e9eb"/>
  <path d="M31.393,39.778c-1.578-.695-.317-3.804-.232-5.023.144-2.085.093-4.831-.4-6.849-.593-2.43-1.865-4.174-2.184-6.934-.148-1.284.09-2.861.04-4.181.202-.618,1.98-.445,2.532-.257.459.157,4.081,2.676,4.537,3.132.338.338.068,1.09,1.324.948-.62,2.144.192,5.368-.238,7.315-.038.17-1.546,2.145-1.759,2.959-.157.601-.015,1.207-.164,1.706-.563,1.879-1.722,3.028-.466,5.016.371.588,1.081.601,1.001,1.34-.559.582-1.252.5-1.931.661-.72.17-.991.636-2.059.166Z" fill="#d3e9eb"/>
  <path d="M42.624,23.186l-1.389,5.738-.029,7.009,1.861,2.327c-1.137,1.252-4.247,2.353-5.489.832-.703-.861.018-.994.121-1.78.273-2.093-.945-4.914-.823-6.526.017-.23.426-.794.502-1.276.165-1.058.159-2.266.444-3.296.649-2.349,2.819-2.238,4.803-3.029Z" fill="#7e7e7e"/>
  <path d="M32.095,5.425c1.169-.039,3.779.313,4.977.523,4.444.78,2.85,4.212,3.732,7.023.14.446,1.793,2.026,1.838,2.374.084.653.016,1.29-.231,1.91-.323.81-.945.948-1.656,1.023.033-1.259.199-2.352-.82-3.271-.777.827.194,2.382-.818,3.037-.156-.051-.308-.175-.468-.234-.347-1.974.987-3.179.466-5.141-1.325.984-2.192,2.629-2.572,4.207-.75-.34-.655-.444-.702-.467l1.007-2.732,1.346-1.169-.516-1.903c-1.592-.245-3.074.014-4.039,1.384l-1.308,2.55c-.054-.036-.182.037-.234,0-.195-3.011,2.012-4.628,4.681-5.377.029-.59-.446-.926-1.018-.922-1.369.011-3.518.604-4.648,1.406l-1.824,1.855c-.088-.159-.153-.312-.234-.467.822-2.155,3.616-3.524,5.852-3.273v-.699s-2.328-.261-2.328-.261l-.133-.682c-.629.08-1.389.148-1.971.383-.725.293-.724.946-1.419,1.025-.322-1.802,1.641-2.056,3.041-2.102Z" fill="#a9bbbd"/>
  <path d="M18.755,26.692c.159.147-.715,3.436-.709,4.078.007.717.417,4.146.575,4.818.242,1.027,1.114,1.163,1.302,2.083-1.668,1.055-5.142.4-5.714-1.65-.398-1.426.15-3.193-.192-4.482-.184-.695-1.597-1.922-1.579-2.632.674-.892,1.13-2.157,2.286-2.381,1.357-.264,2.689.079,4.032.168Z" fill="#7e7e7e"/>
  <path d="M45.903,19.914l1.389-.25c.149-.533.488-2.863.838-3.019.482-.215.404,1.058.933,1.154.173-.128.389-.409.585-.455-.034.12.014.317,0,.466.814.121.653.39,1.637.469-.066.271-.03.896.219,1.067l1.888.102c.024.17.191.431.234.701l-1.42-.136-.216,1.538,1.87-.234c.035.19.195.417.234.701-.326-.117-1.826-.461-1.876-.099l.005,1.266,1.871-.466c.047.434-.004.433,0,.701-.686-.342-1.299-.035-1.877.35l.148.586,1.729.232c-.005.06.052.142,0,.467-1.067-.396-2.074-.365-2.806.588-.311.751,2.186-.003,2.338.581-.018.074.018.16,0,.234l-2.185-.01-.387,1.645c.809-.617,1.423-.434,2.338-.234.002.156-.004.312,0,.467-.755-.087-1.551-.541-2.106.234-.083-.114-.602.2-.719-.807-.141-1.212.873-4.341.603-5.026-.422-1.075-2.496-2.797-2.696-4.216-.783.207-.211,1.422-.688,1.772l-1.884-.37Z" fill="#a9bbbd"/>
  <path d="M53.159,17.811c.021.15-.022.318,0,.467-.618-.034-1.256.049-1.872,0,.174-.71,1.3-.432,1.872-.467Z" fill="#a9bbbd"/>
  <path d="M53.159,16.642c.016.153-.018.315,0,.467-1.204-.609-1.768-.016-2.708.22-.271.068-.588-.037-.802.013.221-.778,2.779-1.211,3.511-.701Z" fill="#a9bbbd"/>
  <path d="M53.393,28.327c.021.733.624,3.025.616,3.388-.003.158-.352.407-.365.717-.038.903.169,3.021-.62,3.589-.156.112-1.673.697-1.876.717-1.593.164-3.476-2.673-2.452-3.403,1.449-.532,1.074.839,1.452,1.738l1.634-.105c.915-1.96.083-3.131-.745-4.874l.714-.479c-.332-.216-.346-.893-.464-1.054.555-.775,1.351-.321,2.106-.234Z" fill="#d3e9eb"/>
  <path d="M32.329,14.539l1.308-2.55c.966-1.37,2.447-1.629,4.039-1.384l.516,1.903-1.346,1.169-1.007,2.732c-1.493-.743-1.911-.801-3.511-1.87Z" fill="#d3e9eb"/>
  <path d="M29.286,11.501l1.824-1.855c1.13-.802,3.279-1.396,4.648-1.406.571-.004,1.046.332,1.018.922-2.669.749-4.876,2.366-4.681,5.377-.714-.503-1.683-.92-2.235-1.623-.442-.564-.356-1.024-.574-1.415Z" fill="#d3e9eb"/>
  <path d="M39.35,5.892c.326.083,1.681.467,1.774.476.588.055,1.533-1.034,2.336-.256.693,2.67-2.423,4.249-1.221,6.95l1.792,1.945c-.342-.16-.915-.07-1.332-.539-.071-.079-1.074-1.71-1.115-1.808-.578-1.372-.09-3.264-.418-4.491-.195-.729-1.287-1.729-1.816-2.276Z" fill="#a9bbbd"/>
  <path d="M38.648,17.811c-.794-.292-1.368-.6-2.106-.935.38-1.578,1.247-3.222,2.572-4.207.521,1.962-.813,3.167-.466,5.141Z" fill="#d3e9eb"/>
  <path d="M49.413,27.858l-1.278-.938-2.231-6.07c1.819-.176,1.166,1.101,1.508,2.115.097.288.399.539.524.879.492,1.34.929,2.697,1.477,4.015Z" fill="#f8fcff"/>
  <path d="M51.419,2.019c1.055.955,1.463,1.939,1.269,3.404-.657-.37-.246-1.283-.803-1.883-.447-.481-3.615-1.587-3.629-1.969l.377-.598c1.211-.177,1.939.279,2.786,1.046Z" fill="#d3e9eb"/>
  <path d="M44.967,16.876c-.048.858-.527,1.771,0,2.803-.625.542-1.498-1.624-1.585-2.036-.255-1.207-.262-2.186,1.118-2.403.47.428.502,1.042.468,1.636Z" fill="#a9bbbd"/>
  <line x1="34.669" y1="35.569" x2="36.076" y2="31.367" fill="#fff"/>
  <path d="M40.754,18.278c-.972.102-.78.047-1.638-.234,1.012-.655.041-2.21.818-3.037,1.019.919.853,2.012.82,3.271Z" fill="#d3e9eb"/>
  <path d="M53.627,26.457c-.123.491-.242.875-.234,1.402-.915-.201-1.529-.384-2.338.234l.387-1.645,2.185.01Z" fill="#d3e9eb"/>
  <path d="M54.095,25.055c-.114.708-.422.975-.468,1.168-.152-.584-2.649.17-2.338-.581.733-.953,1.739-.984,2.806-.588Z" fill="#d3e9eb"/>
  <path d="M53.627,20.148c.064.4.163.777.234,1.168l-1.87.234.216-1.538,1.42.136Z" fill="#d3e9eb"/>
  <path d="M34.903,40.479c.042-.266-.077-.638.219-.829,1.474-.949,2.075,1.751.176,1.292-.187-.045-.142-.35-.395-.463-.044.285.159.75-.137.959l-1.701-.057.113-.924c.818-.468.956-.323,1.726.022Z" fill="#d3e9eb"/>
  <path d="M54.095,22.017c.031.224-.025.474,0,.701l-1.871.466-.005-1.266c.05-.362,1.551-.018,1.876.099Z" fill="#d3e9eb"/>
  <path d="M54.095,23.419c.006.38.032.793,0,1.168l-1.729-.232-.148-.586c.579-.385,1.192-.692,1.877-.35Z" fill="#d3e9eb"/>
  <path d="M55.966,25.755l-.899-.27-.034-2.065c.526.094,1.06,2.205.933,2.335Z" fill="#d3e9eb"/>
  <path d="M28.116,15.941c.019-.151-.014-.313.001-.466.488-.066.531-.023.465.464-.152.016-.315-.018-.466.001-.019.151.014.313-.001.466-.488.066-.531.023-.465-.464.152-.016.315.018.466-.001Z" fill="#2e3132"/>
  <path d="M46.373,14.07l-.003-.935c-.561.388-1.594-.218-1.636-.932.633.047,1.696-.218,2.127.326.418.528.346,1.611-.488,1.541Z" fill="#2e3132"/>
  <path d="M50.116,15.476c-.312.506-1.021.982-1.637.931-.092-.74,1.139-.968,1.637-.931Z" fill="#a9bbbd"/>
</svg>