<?xml version="1.0" encoding="UTF-8"?>
<svg id="Layer_1" xmlns="http://www.w3.org/2000/svg" width="32.3" height="30.4" version="1.1" viewBox="0 0 32.3 30.4">
  <!-- Generator: Adobe Illustrator 29.2.1, SVG Export Plug-In . SVG Version: 2.1.0 Build 116)  -->
  <defs>
    <style>
      .st0 {
        fill: #4f6a77;
      }

      .st1 {
        fill: #506c79;
      }

      .st2 {
        fill: #7198aa;
      }

      .st3 {
        fill: #1d252b;
      }

      .st4 {
        fill: #54707d;
      }

      .st5 {
        fill: #7399ab;
      }

      .st6 {
        fill: #6a8fa0;
      }

      .st7 {
        fill: #567280;
      }

      .st8 {
        fill: #5f8493;
      }

      .st9 {
        fill: #648a9a;
      }

      .st10 {
        fill: #739aac;
      }

      .st11 {
        fill: #54707c;
      }

      .st12 {
        fill: #6f95a7;
      }
    </style>
  </defs>
  <g>
    <path class="st3" d="M22.3,9.5c1.4-.3.4,1.1.9,1.8l.9.2.2-1.9c2.8-.2,5.2-2.6,8.1-2.6v18c0,.2-.6.6-.9.6-1.5.2-5.4-2.8-7.2-3.1l-.3-1.1h-1c-.3.9.4,1.6.5,2.4s0,5-.5,5.8-1.6.6-2.1.7c-4.6.4-12.7.3-17.4,0s-3.6-.8-3.1-3.9.8-1.5.7-2.3-.7-.8-.9-1.1C0,22.3,0,11.6,0,10.4s0-.9.8-.9c0,0,.9,0,.8.8-.8.4-.5,1.6-.5,2.4l.4.4c6.7.9,13.6.8,20.2,0,.4-.3.3-2.2,0-2.7,0,0,.3-.5.5-.8ZM31.3,8.5l-5.8,2.1-.2,2.6,5.7-2.2c.6-.6.3-1.7.4-2.5ZM25.3,19.3c0,.6-.1,1.9.1,2.3,2,.7,3.9,2.1,5.9,2.5,0-1.3,0-2.5,0-3.8,0-2.7,0-5.4,0-8.1l-5.9,2.3c-.3.4-.1,4-.1,4.8ZM24,12.5h-1v7.4c0,.3.7.5,1,.4v-7.8ZM1.1,19c0,1.6-.3,4.2,1.8,4.5,0-1.2,0-2.4,0-3.5s-.3-3.2.4-4.3h16.9c.4.2.3.5.4.9.3,2.2-.2,4.8-.3,6.9l1.8-.5v-9.1c-6.9.6-14,.8-20.9,0,0,1.7,0,3.4,0,5ZM4.1,22.3c0,1,0,2,.3,3,4.9.3,9.7.4,14.6,0,0-1,0-2,0-3s.2-.5.3-.9c0-1.6,0-3.1,0-4.7H4.1c0,1.8,0,3.7,0,5.5ZM22.5,24.3l-2.2.5-.2,1.5c-5.6.7-11.4.6-16.9,0v-1.5s-.9,0-.9,0c-.7,1.9-1.5,4,1.2,4.3,5.3.6,11.9-.5,17.4,0,.2,0,1.6-.7,1.6-.8v-4Z"/>
    <path class="st10" d="M4.1,22.3c0-1.8,0-3.7,0-5.5h15.1c0,1.5,0,3.1,0,4.7s-.2.7-.3.9c-1,.4-1.7.9-2.9,1-1.4.1-10.1.2-10.9-.2s-.4-.9-1.1-.8Z"/>
    <path class="st1" d="M22.5,24.3v4c0,0-1.4.7-1.6.8-5.5-.5-12,.6-17.4,0s-2-2.4-1.2-4.3h.9s0,1.5,0,1.5c5.6.7,11.3.8,16.9,0l.2-1.5,2.2-.5Z"/>
    <path class="st6" d="M1.1,19c0-1.7,0-3.4,0-5,6.9.8,14,.7,20.9,0v9.1l-1.8.5c.1-2.2.5-4.8.3-6.9s0-.6-.4-.9H3.2c-.7,1.1-.4,2.9-.4,4.3l-1.8-1Z"/>
    <path class="st7" d="M1.6,10.2l4.1,2,.4-1c2.2.1,8.8.4,10.6,0v1c.6.1,2.2-.4,2.9-.7s2-1.2,2.1-1.3c.3.5.5,2.4,0,2.7-6.7.8-13.6,1-20.2,0l-.4-.4c0-.7-.4-2,.5-2.4Z"/>
    <path class="st5" d="M25.3,19.3c0-.8-.1-4.4.1-4.8l5.9-2.3c0,2.7,0,5.4,0,8.1-2.1.1-4-.9-6-1Z"/>
    <path class="st4" d="M4.1,22.3c.6,0,.6.7,1.1.8.8.3,9.5.3,10.9.2,1.2-.1,1.9-.6,2.9-1,0,1,0,2,0,3-4.9.4-9.7.3-14.6,0-.2-1-.2-2-.3-3Z"/>
    <path class="st11" d="M31.3,20.3c0,1.3,0,2.5,0,3.8-2-.4-3.9-1.8-5.9-2.5-.3-.4-.1-1.7-.1-2.3,2.1,0,4,1.1,6,1Z"/>
    <path class="st12" d="M31.3,8.5c0,.8.3,2-.4,2.5l-5.7,2.2.2-2.6,5.8-2.1Z"/>
    <path class="st0" d="M24,12.5v7.8c-.3.1-1-.1-1-.4v-7.4h1Z"/>
    <path class="st11" d="M2.9,20.1c0,1.2,0,2.4,0,3.5-2.1-.4-1.7-2.9-1.8-4.5l1.8,1Z"/>
    <path class="st7" d="M5.9,11.2c-.5,0-.5.1-1-.3l1,.3Z"/>
  </g>
  <path class="st3" d="M1.2,10.3C0,8.9-.1,4.6.8,3,2.8-.8,8.9-1.1,11.2,2.7c.7-.4,1.2-1.1,2-1.5,3.5-2.1,6.5-.7,8.8,1.9.7,1.2.7,5.4,0,6.7s-.5.6-.6.7c-.2.2-.4.6-.5.6,0,0-1.8,1-2,1.1-.7.3-2.2.7-2.9.6v-.8c.3,0,.7-.4,1.1-.5,1.1-.3,1.8-.2,2.7-1,3.9-3.2-.3-9-5.5-7-1.1.4-2.2,1.9-3.1,1.8s-1.4-1-1.9-1.4c-3.5-2.4-8.8,0-8.1,3.9s2.1,2.8,3.7,3.9.5.2,1,.2.2,0,.2,0l-.4.8-3.9-1.7c.1-.6-.7-.6-.7-.6ZM10,2.9c-.8-.9-.9-1.3-2.5-1.7s-4.6.1-5.2,1.4,1.6-.4,1.9-.5c1.4-.4,2.7-.4,4.1,0s.9.5,1.7.7c.4.5,1,.9,1.2,1.5,1.8-1.6,3.8-2.6,6.5-2.2s1.7.7,2.6.9c-1.5-2-4.4-2.2-6.6-1s-1.2,1.2-1.6,1.3c-1.4.5-1.1-.2-2.1-.5Z"/>
  <path class="st2" d="M5,11.6c-1.7-1.1-3.4-1.9-3.7-3.9C.6,3.8,5.9,1.3,9.4,3.7c.6.4,1.2,1.4,1.9,1.4s2-1.4,3.1-1.8c5.2-1.9,9.4,3.8,5.5,7-.9.8-1.6.7-2.7,1s-.8.4-1,.5c-1.7.3-8,.1-10.1,0s-.2,0-.2,0l-1-.2ZM5.4,6.4c-2.4.5-1.3,3.7,1.1,3.2,2.4-.4,2.1-3.9-1.1-3.2ZM16.4,6.4c-3,.5-1.3,4.5,1.4,3.3s.8-3.6-1.4-3.3Z"/>
  <path class="st9" d="M10,2.9c-.8-.3-1-.5-1.7-.7-1.4-.4-2.7-.5-4.1,0s-2.2,1.2-1.9.5c.6-1.2,3.7-1.7,5.2-1.4s1.7.8,2.5,1.7Z"/>
  <path class="st8" d="M10,2.9c.9.3.6,1,2.1.5s.9-.9,1.6-1.3c2.2-1.2,5.1-1,6.6,1-.9-.1-1.7-.7-2.6-.9-2.7-.4-4.7.6-6.5,2.2-.2-.6-.8-1-1.2-1.5Z"/>
  <path class="st2" d="M16.4,6.4c2.2-.4,3.5,2.3,1.4,3.3s-4.3-2.7-1.4-3.3ZM17.7,7.7c-.2-.2-1.4-.2-1.6,0-1.1,1.5,2.7,1.5,1.6,0Z"/>
  <path class="st2" d="M5.4,6.4c3.2-.6,3.5,2.8,1.1,3.2-2.4.4-3.5-2.8-1.1-3.2ZM6.9,7.5c-.2-.2-1.4-.2-1.6,0-1.1,1.5,2.7,1.5,1.6,0Z"/>
  <path class="st2" d="M17.7,7.7c1.1,1.5-2.7,1.5-1.6,0s1.4-.2,1.6,0Z"/>
  <path class="st2" d="M6.9,7.5c1.1,1.5-2.7,1.5-1.6,0s1.4-.2,1.6,0Z"/>
</svg>