<?xml version="1.0" encoding="UTF-8"?>
<svg id="Layer_1" xmlns="http://www.w3.org/2000/svg" width="41.3" height="19.7" version="1.1" viewBox="0 0 41.3 19.7">
  <!-- Generator: Adobe Illustrator 29.2.1, SVG Export Plug-In . SVG Version: 2.1.0 Build 116)  -->
  <defs>
    <style>
      .st0 {
        fill: #9d9d9d;
      }

      .st1 {
        fill: #101010;
      }

      .st2 {
        fill: #d3d3d3;
      }

      .st3 {
        fill: #e7e7e6;
      }

      .st4 {
        fill: #919090;
      }

      .st5 {
        fill: #969595;
      }

      .st6 {
        fill: #e1e1e1;
      }
    </style>
  </defs>
  <path d="M40.1,12.8c-.4.6-2.3,3.1-2.7,3.3-1.1.5-8.2,1.8-9.6,2-6.7.5-14.1-.4-20.8,0l-3.2-1.5-2.8-2.6c0-.2,0-.4,0-.6l.3-.3h-.6C-.3,10.2.1,10.7.1,8s-.3-5.2,0-7S.4.4.8.2c1.7-.8,5.6.6,7.6.9,6.9.9,13.7,0,20.5-.3s8.5,0,10.9.6,1.1.6,1.2.8c.3.5.3,7.3.1,8.2s-.6,1.4-1.1,2.2ZM40.4,7.8c.1-1.6.8-3.5,0-5.1-3.6-.6-7.6-1.1-11.4-.9-6.9.3-13.9,1.2-20.8.3S1.7.3,1.1,1.2s-.5,7.6-.4,8.8.5.9.6,1.3c.2.6.2.8.6,1.4,1.6,2.8,1.5,2.5,4.6,2.9,6.2.8,13.2.2,19.5.3.5,0,1.3-.2,1.6.3-6.1.5-14.5.2-20.7,0-.6,0-1.2-.3-1.9-.3l2.2,1.2c9-.7,21.1,1.5,29.5-1.8.4-.2.9-.6,1.1-1.1-.7.1-1.4.2-2,.3l-.6-.3c2.2-.5,4-.5,4.9-3s.2-1.6.3-2.5,0-.6,0-.9Z"/>
  <path class="st1" d="M1,13.9l2.8,2.6,3.2,1.5c6.8-.4,14.1.5,20.8,0,1.5-.1,8.5-1.4,9.6-2s2.3-2.7,2.7-3.3c0,1,.6,2,.1,2.9s-2.5,2-2.8,2.1c-4.5,2.2-23.2,2-28.8,1.6s-5.8-1-6.9-2.3-.9-2.1-1-2.5.2-.6.2-.6Z"/>
  <path class="st4" d="M.7,13h.6s-.3.3-.3.3c0,0-.2-.2-.3-.3Z"/>
  <path class="st5" d="M35.2,14.2c-2.4.6-5.5,1.3-8,1.5-6.7.4-13.9-.4-20.7,0-3.1-.4-3.1-.1-4.6-2.9.4-.4.5-.4,1.1-.4,1.7.2,3.6.9,5.4,1,4.8.3,12.3.3,17.1,0s10.5-1.9,14.9-4.6c-.1.9,0,1.5-.3,2.5-1,2.6-2.7,2.5-4.9,3Z"/>
  <path class="st6" d="M1.3,11.3c-.1-.3-.5-.4-.6-1.3S.6,1.9,1.1,1.2c.7-.9,5.8.6,7.1.8,7,.9,13.9,0,20.8-.3s7.7.3,11.4.9c.8,1.6.2,3.6,0,5.1-2.2.9-4.3,2.4-6.6,3.1-6.6,2.1-17,2.3-23.9,1.8s-5.7-1-8.5-1.4ZM1.3,2v8c.3.5.7.6,1.3.8,7.6,2.5,27.3,2,34.4-1.8s2.9-1.9,2.5-4.7,0-.5-.2-.7c-2.8-1-6.3-.9-9.3-.9-8.1,0-16.4,1-24.5-.4s-2.6-1.2-4.3-.2Z"/>
  <path d="M40.4,7.8c0,.3,0,.6,0,.9-4.4,2.7-9.7,4.3-14.9,4.6s-12.3.4-17.1,0-3.7-.8-5.4-1-.7,0-1.1.4c-.4-.7-.4-.8-.6-1.4,2.8.4,5.7,1.2,8.5,1.4,7,.5,17.3.3,23.9-1.8s4.4-2.2,6.6-3.1Z"/>
  <path class="st5" d="M35.7,14.5c.6-.1,1.4-.2,2-.3-.2.4-.6.9-1.1,1.1-8.4,3.3-20.5,1.1-29.5,1.8l-2.2-1.2c.6,0,1.2.3,1.9.3,6.2.2,14.6.4,20.7,0s5.4-1.2,8.1-1.7Z"/>
  <path d="M35.2,14.2l.6.3c-2.7.6-5.3,1.5-8.1,1.7-.3-.5-1.1-.3-1.6-.3-6.3,0-13.4.6-19.5-.3,6.8-.3,14,.5,20.7,0,2.5-.2,5.5-.9,8-1.5Z"/>
  <path class="st0" d="M1.3,2c1.7-1,2.6,0,4.3.2,8.1,1.3,16.4.4,24.5.4s6.5-.2,9.3.9c.2.2.1.5.2.7.4,2.8-.2,3.5-2.5,4.7-7.2,3.8-26.8,4.4-34.4,1.8-.5-.2-.9-.3-1.3-.8V2ZM1.6,7.8c0,.7,0,1.3,0,2l3.2.6c0-.6,0-1.2,0-1.7,0-2-.8-4.4,1.6-4.6s6,0,6.3.1c.5,1.3.2,3,.3,4.5s0,1.9,0,2.9l13-.3c0-.9,0-1.7,0-2.6s-.2-2.9,0-3.9c.4-1.9,5.5-.6,7.1-1,.6,0,.4.6.4.6h-1.4s0,5.8,0,5.8l1.4-.3v-5.5c0,0,.5-.1.6.2.2.7,0,2.4,0,3.3s-.1,1.3.1,1.7c1.4-.6,4.5-1.5,4.8-3.2s0-1.7,0-2.4l-.7-.5c-2.7-.2-5.4-.3-8.1-.3s-6.1.3-9.1.3-.6,0-.9,0c-4.3,0-9.6.3-13.7-.3s-2.8-1.3-4.3-.9c-.7.2-.5,4.6-.5,5.5ZM28.8,4.4h-1.7v6.7l1.7-.3v-6.4ZM31.4,4.4h-2.3v6.4c.8,0,1.8-.2,2.3-.7v-5.6ZM7.4,4.7h-1.4v6.1l1.4.3v-6.4ZM10.3,4.7h-2.3v6.7l2.3.3v-6.9ZM12,4.7h-1.4v6.9h1.4v-6.9Z"/>
  <path class="st3" d="M20.1,3.5v5.2s-7.2,0-7.2,0c0-1.5.2-3.2-.3-4.5-.3-.2-5.5-.2-6.3-.1-2.4.2-1.5,2.6-1.6,4.6-1.3.3-2-.8-3.2-.9,0-.9-.2-5.3.5-5.5,1.6-.4,3,.7,4.3.9,4.1.6,9.5.3,13.7.3Z"/>
  <path class="st3" d="M38.9,6.4c-1.6.5-3.1,1.6-4.9,1.4,0-.9.2-2.6,0-3.3s-.5-.2-.6-.2.2-.7-.4-.6c-1.6.4-6.7-.9-7.1,1s0,2.7,0,3.9h-4.9s0-5.2,0-5.2c3,0,6.1-.3,9.1-.3s5.4.1,8.1.3l.7.5c0,.7.2,1.7,0,2.4Z"/>
  <path class="st2" d="M21,3.5v5.2s4.9,0,4.9,0c0,.9,0,1.7,0,2.6l-13,.3c0-1,0-1.9,0-2.9h7.2s0-5.2,0-5.2c.3,0,.6,0,.9,0Z"/>
  <polygon class="st2" points="10.3 4.7 10.3 11.6 7.9 11.3 7.9 4.7 10.3 4.7"/>
  <path class="st2" d="M31.4,4.4v5.6c-.6.6-1.5.6-2.3.7v-6.4h2.3Z"/>
  <polygon class="st2" points="28.8 4.4 28.8 10.7 27.1 11 27.1 4.4 28.8 4.4"/>
  <rect class="st2" x="10.6" y="4.7" width="1.4" height="6.9"/>
  <polygon class="st3" points="7.4 4.7 7.4 11 5.9 10.7 5.9 4.7 7.4 4.7"/>
  <polygon class="st6" points="33.4 4.4 33.4 9.8 32 10.2 32 4.4 33.4 4.4"/>
  <path class="st2" d="M38.9,6.4c-.3,1.7-3.4,2.6-4.8,3.2-.3-.4-.1-1.2-.1-1.7,1.8.1,3.3-1,4.9-1.4Z"/>
  <path class="st2" d="M4.8,8.7c0,.6,0,1.2,0,1.7l-3.2-.6c0-.7,0-1.3,0-2,1.2,0,1.9,1.2,3.2.9Z"/>
</svg>