<?xml version="1.0" encoding="UTF-8"?>
<svg xmlns="http://www.w3.org/2000/svg" width="39.9" height="36.8" version="1.1" viewBox="0 0 39.9 36.8">
  <!-- Generator: Adobe Illustrator 29.2.1, SVG Export Plug-In . SVG Version: 2.1.0 Build 116)  -->
  <defs>
    <style>
      .st0 {
        fill: #282323;
      }

      .st1 {
        fill: #244573;
        mix-blend-mode: hard-light;
        opacity: .3;
      }

      .st2 {
        fill: #f7f8f8;
      }

      .st3 {
        fill: #2c2826;
      }

      .st4 {
        isolation: isolate;
      }

      .st5 {
        fill: #896d67;
      }

      .st6 {
        fill: #b49d90;
      }

      .st7 {
        fill: #f7e6c1;
      }

      .st8 {
        fill: #635042;
      }

      .st9 {
        fill: #a79488;
      }

      .st10 {
        fill: #ecddb9;
      }

      .st11 {
        fill: #d9b89e;
      }
    </style>
  </defs>
  <g class="st4">
    <g id="Layer_1">
      <path class="st1" d="M0,25.7l1,4.8,4.8,4.4,5.4,1h6.6l7-1,5-.6,5.4-3,2-5.2v-5l-3.6-2.6-8.9-.2s-9.5-.2-13.3,0S1.5,22.7,1.5,22.7l-.6,2.6"/>
      <path class="st0" d="M1.9,26.8c-.6-1.3-1.4-3.2-1.6-4.6-.3-3.1-.4-11.8,0-14.8.6-4.3,8.4-2.1,11.7-2.7S22-.1,24.9,0s1.8,1.4,1,2.7l-4.8,2.2c2.6,0,5.8.4,8.3,1.1s7.2,3.3,8.7,4.6,2.2,2.5,1.7,4.3c-1,3.7-4.5,7.7-5.8,11.2-.7.3-1,1.8-1.2,2s-.9.2-1.2.4c-.7,0,.2-1.2.3-1.5.7-1.2,1.4-2.5,2.1-3.7s.6-1.5.8-2c1.1-2.3,4.1-5.9,3.2-8.4s-.3-.9-.7-1.2c-.6-.5-4.3-2.2-5.2-2.7C22.8,4.9,12.4,6.9,2.6,6.4c-.7.2-.6,2.2-.7,2.8-.2,3.6-.4,10,0,13.4s.8,3,2.4,3.8c-.3,1,.6,1.2.8,1.6.4.6.6,1.3,1.2,1.8l-.8.2c-1.4-.8-2.2-2.4-3.6-3.2ZM25.1,1.2l-4.1,1.3-5.9,2.7c3-.4,6.3-1.8,9.1-3.1.6-.3,1.1.2.9-.9Z"/>
      <path class="st2" d="M32.7,28c0,0,0,.6-.4,1-5.3,5.1-11.7,3.7-18.4,3.8,1.1-1.6,1.8-1.5,2.8-2.4,2.1,0,4.1,0,6.2,0s1.6.3,3.4,0,3.2-.7,5.2-2,1.1-.3,1.2-.4c.2-.2.5-1.7,1.2-2-.1.3.2,1-.2,1.6s-.9.3-1,.4Z"/>
      <path class="st3" d="M16.7,26.4c.6.5,1.9.3,1.6,2-.1,0-1.3,1.7-1.6,2-1,.9-1.7.8-2.8,2.4s-1.1.9-.4,2c-.4.2-.9.7-1.2.8-1.3-3.8,1.6-4.3,3.8-6.4s1.7-1.7,1.4-2c-2,.8-4.5,5-6.6,5.2s-1.1-.5-1.3-.3-.3,1.4-1.3,1.2c0-.1,0-.3,0-.4,0-.3,0-.6,0-.8s.6-.6.8-.8c2.4.3,4-1.3,5.2-3.2s.4-.5.4-.8c.7-.1,1.3-.7,2-.8Z"/>
      <path class="st2" d="M8.3,32.8c0,.1,0,.3,0,.4.3,1.4,2.5,2.7,4,2.4s.8-.6,1.2-.8c0,0,1.2-.3.8,1.2-1.9,1.1-3.4,1-5.4,0s-3.4-2.6-.6-3.2Z"/>
      <path class="st2" d="M5.5,30c.9.5,1.1.2,1.6.4s1.6.7,2,.8c-.2.2-.7.6-.8.8-3.7-1.1-4.8-1.7-6.4-5.2,1.4.8,2.2,2.4,3.6,3.2Z"/>
      <path class="st5" d="M3.9,8.8c0,0,.2-.5.4-.6,1-.4,16.3-.6,18.6-.6,4.4.1,10.9,3.1,13.8,6.4-1,2-1.7,4.2-3,6-3.1,4.1-7.4,6.1-12.6,5.6-.5,2.9,5.2,1.2,6.8.6,2.8-1.1,4.3-3.7,6.8-5-.2.5-.4,1.1-.8,2-2.6,1.4-3.7,3.6-6.8,4.4s-6,.3-8.8.8c.3-1.7-1-1.5-1.6-2s.2-.7-.3-.8c-2.4-.6-11.6,1.2-12.7-1.2l.2-15.6ZM33.5,17.6c1-1.7,2.6-2.4.6-4.4-4.8-5.1-20.9-5.1-27.6-4.3s-1.2.3-1.8.4c-.1,1,0,2.1,0,3.2,0,1.7-.3,10.4.2,11.2.7,1.2,7.4.9,9,.8s2.1.2,3,0,1.8-1.4,3-1.2c.3,2.1,2,1.3,3.2,1.2,5.5-.3,7.6-2.2,10.4-6.8ZM19.1,27.6c1.3,0,1.4-1.2,1.1-2.1l-.3-.5-1.6-.2.8,2.8Z"/>
      <path class="st9" d="M1.9,9.2c0-.6,0-2.7.7-2.8,9.8.5,20.2-1.5,29.4,2.5s4.6,2.2,5.2,2.7.5.8.7,1.2c-1.2,0-.9.7-1.2,1.2-2.9-3.3-9.5-6.3-13.8-6.4s-17.5.2-18.6.6-.3.6-.4.6c-.6.2-1.4.3-2,.4Z"/>
      <path class="st11" d="M3.9,8.8l-.2,15.6c1.2,2.3,10.4.6,12.7,1.2s.2.8.3.8c-.7,0-1.3.7-2,.8-2.3.3-8.4.3-10.4-.8s-2.1-2-2.4-3.8c-.5-3.4-.2-9.8,0-13.4.7,0,1.4-.2,2-.4Z"/>
      <path class="st11" d="M37.9,12.8c.9,2.5-2.1,6.1-3.2,8.4-2.5,1.3-4,3.9-6.8,5-1.6.6-7.3,2.3-6.8-.6,5.1.5,9.5-1.5,12.6-5.6s2-4,3-6,0-1.3,1.2-1.2Z"/>
      <path class="st6" d="M33.9,23.2c-.7,1.3-1.4,2.5-2.1,3.7s-1,1.4-.3,1.5c-2,1.3-2.9,1.7-5.2,2-1.3-.8,2.1-2,.8-2.8,3.1-.8,4.2-3,6.8-4.4Z"/>
      <path class="st5" d="M14.7,27.2c0,.3-.2.5-.4.8H5.1c-.2-.4-1.1-.6-.8-1.6,2,1.1,8.1,1.1,10.4.8Z"/>
      <path class="st8" d="M25.1,1.2c.2,1.1-.3.6-.9.9-2.8,1.3-6.1,2.7-9.1,3.1l5.9-2.7,4.1-1.3Z"/>
      <path class="st9" d="M6.7,28l2,2.2-1.6.2c-.5-.2-.7,0-1.6-.4l.8-.2c-.6-.5-.8-1.2-1.2-1.8h1.6Z"/>
      <path class="st11" d="M27.1,27.6c1.3.8-2.1,2-.8,2.8-1.7.2-1.9,0-3.4,0s-4.1,0-6.2,0c.3-.3,1.5-2,1.6-2,2.8-.5,6.1,0,8.8-.8Z"/>
      <path class="st11" d="M14.3,28c-1.2,1.9-2.8,3.5-5.2,3.2s-1.5-.6-2-.8l1.6-.2-2-2.2h7.6Z"/>
      <path class="st5" d="M8.3,33.2c1,.2,1-1,1.3-1.2s.9.3,1.3.3c2.1-.1,4.5-4.4,6.6-5.2.3.3-1.2,1.8-1.4,2-2.2,2.1-5.1,2.6-3.8,6.4-1.5.3-3.7-1-4-2.4Z"/>
      <path class="st10" d="M4.7,12.4c2.5-.2,5.4.3,7.8,0s.6-.8,1.1-1c1.3-.5,5.6-.5,6.8.1,2.4,1.2,2.3.5,4.9.8s6.8,2.3,8.2,5.2c-2.8,4.6-4.9,6.5-10.4,6.8.5-1.5,6.4-4.6,4-6.2s-5.2,3.9-7.2,4.2c-.2-3.2.3-6.4-.2-9.6l-5.8-.4c-.3,4.1.7,8,0,12-1.6,0-8.3.4-9-.8s-.2-9.5-.2-11.2Z"/>
      <path class="st6" d="M33.5,17.6c-1.4-2.9-5.1-4.9-8.2-5.2s-2.5.4-4.9-.8-5.6-.6-6.8-.1-.3.9-1.1,1c-2.4.3-5.4-.3-7.8,0,0-1,0-2.1,0-3.2.6,0,1.2-.3,1.8-.4,6.7-.7,22.7-.7,27.6,4.3,2,2,.4,2.7-.6,4.4Z"/>
      <path class="st7" d="M19.9,22.4c0,.3,0,.6,0,.8-1.2-.2-2,1-3,1.2s-2,0-3,0c.7-4-.3-7.9,0-12l5.8.4c.5,3.2,0,6.4.2,9.6Z"/>
      <path class="st3" d="M23.1,24.4c-1.2,0-2.9.9-3.2-1.2s0-.5,0-.8c2-.4,5.2-5.6,7.2-4.2s-3.6,4.7-4,6.2ZM26.3,19.2c-.4-.4-1.9.9-1.6,1.6.4.4,1.9-.9,1.6-1.6ZM23.9,21.2c-.4-.4-3,2-2.8,2.8.4.5,3.2-2.3,2.8-2.8Z"/>
      <path class="st6" d="M19.1,27.6l-.8-2.8,1.6.2.3.5c.2,1,.1,2.2-1.1,2.1Z"/>
      <path class="st8" d="M23.9,21.2c.4.5-2.4,3.2-2.8,2.8-.2-.8,2.4-3.2,2.8-2.8Z"/>
      <path class="st8" d="M26.3,19.2c.3.7-1.2,2-1.6,1.6-.3-.7,1.2-2,1.6-1.6Z"/>
    </g>
  </g>
</svg>