<?xml version="1.0" encoding="UTF-8"?>
<svg id="Layer_1" xmlns="http://www.w3.org/2000/svg" width="24.3" height="24.9" version="1.1" viewBox="0 0 24.3 24.9">
  <!-- Generator: Adobe Illustrator 29.2.1, SVG Export Plug-In . SVG Version: 2.1.0 Build 116)  -->
  <defs>
    <style>
      .st0, .st1, .st2 {
        fill: #90c6c6;
      }

      .st0, .st1, .st3 {
        stroke: #414142;
        stroke-miterlimit: 10;
      }

      .st0, .st3 {
        stroke-width: .8px;
      }

      .st4 {
        fill: #e3f3f4;
      }

      .st5 {
        fill: #b6e2f2;
      }

      .st6 {
        fill: #a3dad9;
      }

      .st1 {
        stroke-width: .7px;
      }

      .st7 {
        fill: #e1f3f4;
      }

      .st8 {
        fill: #313b3b;
      }

      .st9 {
        fill: #a3adaf;
      }

      .st3 {
        fill: #616262;
      }

      .st10 {
        fill: #cee6ec;
      }
    </style>
  </defs>
  <g>
    <polygon class="st6" points="8.9 10.6 11.8 10.7 14 10.9 16.2 12.5 16.4 13.3 13.4 13.4 8.9 12.6 8.9 10.6"/>
    <polyline class="st10" points="12.4 17.2 13.9 19.7 14.3 20.9 16.1 22.1 17.4 20.1 13.8 17.1 12.2 16.4"/>
    <path class="st4" d="M1.4,10.2c0,.4,0,.9,0,1.4.6.2.7,0,1,0,.2,0,.5,0,.7,0,0,.9.2,3.5-.4,4.1-.7,0-1.3,0-2,0,0-1.4,0-3.5,0-4.9,0-.6,0-1.4.7-.5Z"/>
    <path class="st10" d="M4.5,16.5c-1.2,0-2.5-.2-3.7-.2v-.7c2.6-.1,4.9.6,7.5,0,0,0,5.1,1.2,5.3,1.4.5.4-.9.5.5,1.4-.5.2-5.9-1.7-7.1-1.8"/>
    <path class="st8" d="M19.4,0v8.4c0,0-2,.8-2,.8,2.5-.6,3.4,1.7,5,2.7.4.3.7,1.4.7,1.5.3.3.7,5.4.7,6.5,0,1.7,1,2.5-.6,4.1-1.1,1-2.7,1.1-4.1.7-.6-.2-1.1-.9-1.7-1.2-1.2-.6-8.7-.6-9.8,0-.6.3-1,1-1.7,1.2-2,.6-4.3-.2-5.5-1.9,0-.2.3-.6.3-.7.4,0,1,.4,1.4.3,1.1,2.2,4,1.6,5.1-.3,3.5,0,7,0,10.5,0,1.5,3.2,7.1,1.5,4.8-1.7,0-.8,0-1.6,0-2.4h-1s-.4,1.2-.4,1.2c-.7.6-.8-1.8-.7-2.2h2s0-1.8,0-1.8l-1.7-.6c.3-2.7-.5-3-2.4-4.4.5,1.2-.7,1.4-.7,1.5,0,.3,1.1,2.7,1.2,3.5s0,.7-.9.7c0-.4-.6-2.5-.8-2.7-.4-.5-.7-.3-1.3-.4-2-2.5-4.7-1.9-7.4-2v-.7l5,.4c1.2.3,2.2,1.5,3,1.3,1-.2-.3-2.4-.8-2.7-1.1-.6-5.4-.4-6.9-.3-.9,0-1.9,0-2.7,0-.7,0-1.9-.3-2.4.3v5.8c.2,0,.5,0,.7,0,.2,0,.5,0,.7,0,.2,0,.5,0,.7,0,.2,0,.5,0,.7,0,.3,0,1.6.5,1.7.7-2.6.6-4.9-.1-7.5,0h-.3l.3-.3c.8,0,1.5.2,2-.3.6-.6.4-2.5.3-3.4,0-.6,0-1.1,0-1.7h-.5s-.2,1.7-.2,1.7c-.3,0-.7,0-1,0,0-.4,0-.9,0-1.4s.4-.4.4-.8l-.4-.5-.7-.3c.3-.1-.3-.6-.3-.7.1-.1.6-.2.7-.3h17.9s0-6.7,0-6.7v-.4H1.1l-.3-.3h18.7ZM1.1,8.1c.9.6,2.5.3,3.6.3,4.1,0,8.5.2,12.6,0,.5,0,1.4.2,1.5-.3H1.1Z"/>
    <path class="st8" d="M12.7,11.2l.3.3c.3.1.3.4.3.7h-4.1s.2,3.1.2,3.1l3.2.7v.3c0,0,.3.4,0,.4-1.4-1-3.9-.5-4.4-.8-.2-.1,0-.5,0-.6l.3-.5c0-1.2,0-2.4,0-3.6h4.1Z"/>
    <path class="st8" d="M.8,15.6v.7c1.2,0,2.1.1,3.3.2.6.1,1.9.2,2.8.2s5.1.7,5.5,1c.7.5,1.4,1.3,1.7,2.1l-.7.3c-.3-.9-.4-1.5-1.3-1.9-3.3-1.3-7.7-.9-11.2-1.5.2,1.1-.3,2.1-.4,3.2,0,.9.3,1.5.4,2.2s-.4.4-.3.7c-.5-.8-.6-6.4,0-7.1h.3Z"/>
    <path class="st8" d="M1.1.3v7.1c-.1,0-.2.2-.3.3h-.3c-.1-1.8-.2-5.2,0-7,0-.3,0-.7.4-.8l.3.3Z"/>
    <path class="st8" d="M1.4,10.2c-.8-.9-.7,0-.7.5,0,1.4,0,2.8,0,4.2-.2,0-.5,0-.7,0v-5.6s1.4-.5,1.4-.5l.4.5c0,.5-.4.7-.4.8Z"/>
    <polygon class="st4" points="18.6 .7 19 .7 19 7.5 1.1 7.5 1.1 .7 18.6 .7"/>
    <path class="st7" d="M14.7,21c.9.5,1.2.2,2.3.2-.2-.9.7-2.1.8-2.9s.3-2.3.3-2.4c.8,0,1.1.4.9-.7s-1.2-3.3-1.2-3.5c0,0,1.2-.4.7-1.5,2,1.3,2.7,1.7,2.4,4.4l1.7.6v3s-2-.2-2-.2c-.1.4,0,1.7.7,1.2l.4-1.2h1c0,.8,0,1.6,0,2.4,0,.6,0,1.1,0,1.7-1.6,0-3.2,0-4.8,0-3.5,0-7,0-10.5,0-2,0-3.3.2-5.1.3-.4,0-.9-.3-1.4-.3,0-.7-.4-1.3-.4-2.2,0-1.1.6-2.1.4-3.2,3.5.7,7.9.2,11.2,1.5.9.4,1,1,1.3,1.9"/>
    <path class="st7" d="M14,20.8c0-.3,0-.6,0-.8"/>
    <path class="st6" d="M15.4,12.8c.6,0,1.2-.1,1.7.3.3.2.9,2,.9,2.4,0,.1-.3,1.8-.4,2.1v.9s-.8,1.2-.8,1.2c-.6.1-1.2-.2-1.8-.2.5-1.2-1.8-2.4-2-3.3-.3-1.1.2-2.2,0-3.3.8,0,1.5,0,2.3,0Z"/>
    <path class="st6" d="M8.6,9.8v1c0,.2,0,.5,0,.7,0,1.2,0,2.4,0,3.6l-.3.5c-.1-.2-1.4-.6-1.7-.7v-5.4c.7-.3,1.7.3,2,.3Z"/>
    <path class="st8" d="M8.9,8.8v1c-.1,0-.2,0-.3,0-.4,0-1.3-.7-2-.3v5.4c-.2,0-.5,0-.7,0,0-1.3,0-2.6,0-3.9,0-.5.3-1.4-.5-1.2l-.2,5.1c-.2,0-.5,0-.7,0,0-1.4,0-2.8,0-4.3,0-.7.3-1.4-.7-1.2v-.3c.9.3,1.9-.3,2.4-.3.9,0,1.8,0,2.7,0Z"/>
    <path class="st2" d="M17.7,22.1c1.6,0,3.2,0,4.8,0,0-.6,0-1.1,0-1.7,2.3,3.2-3.3,4.9-4.8,1.7Z"/>
    <path class="st2" d="M7.2,22.1c-1.1,2-4,2.6-5.1.3,1.8-.1,3.1-.3,5.1-.3Z"/>
    <rect class="st5" x="1.1" y=".3" width="17.7" height=".3"/>
    <path class="st4" d="M3.8,9.5c1-.2.7.5.7,1.2,0,1.4,0,2.8,0,4.3-.2,0-.5,0-.7,0v-5.4Z"/>
    <path class="st4" d="M5.2,14.9l.2-5.1c.8-.2.5.7.5,1.2,0,1.3,0,2.6,0,3.9-.2,0-.5,0-.7,0Z"/>
    <path class="st9" d="M2.6,9.8h.5c0,.6,0,1.1,0,1.7-.2,0-.5,0-.7,0"/>
    <polygon class="st9" points="19.1 .7 18.8 .7 18.8 .3 19.1 .7"/>
    <path class="st8" d="M14,20c0,.2.5.4.5.7l1,.4c-.1,1.5-1.9-.3-2.2-1.1l.7-.3c0,.1,0,.2,0,.3Z"/>
    <path class="st8" d="M17.6,19.4c-.1.7-.6,1.5-.3,2.4-1.1,0-1.8.2-2.7-.3v-.3c.1,0,.2,0,.3,0,.5,0,1.1,0,1.6,0l.7-1.7h.3Z"/>
    <path class="st8" d="M13.3,12.2c0,.6.2,3.7,0,4.2-.1.4-.6.2-.7.2v-.3c.7-1,0-2.9.2-4.1h.5Z"/>
    <path class="st6" d="M12.9,12.2c-.1,1.2.5,3-.3,4l-3.2-.7-.2-3.4h3.7Z"/>
    <line class="st3" x1=".4" y1="10.1" x2=".4" y2="20.4"/>
    <circle class="st0" cx="4" cy="21.3" r="3.2"/>
    <circle class="st0" cx="20.7" cy="21.3" r="3.2"/>
    <line class="st0" x1="18.7" y1="8.9" x2=".7" y2="8.9"/>
    <polyline class="st8" points="18.1 15.8 17.9 16.7 17.7 18.1 17.2 19.4 17.2 20 17.5 20.1 18.4 18.7 19.1 18.2 19 16.1 19 15.8 18 15.5"/>
    <line class="st3" x1="8.7" y1="9.1" x2="8.7" y2="15.9"/>
    <path class="st8" d="M2.2,15.2c1.2,0,2,0,3.2,0,.6.1,1.9.2,2.8.2,1.2,0,5.1.7,5.5,1,.7.5,1.4,1.3,1.7,2.1l-.7.3c-.3-.9-.4-1.5-1.3-1.9-3.3-1.3-7.7-.9-11.2-1.5"/>
    <ellipse class="st1" cx="4.1" cy="21.1" rx="3.2" ry="2.9"/>
    <path class="st10" d="M18.8,8.1c-.1.9-1.1.5-1.5.5-4.1.3-8.4,0-12.6,0-1.1,0-2.7.4-3.6-.5h17.7Z"/>
    <path class="st7" d="M19.3,10.8l.3.2s.8.7,1.8,1.5c1,.8,1.1,2.7,1.1,2.7l-2.9.2v-4"/>
    <path class="st8" d="M18.2,17.5c-.1.7-.6,1.5-.3,2.4-1.1,0-1.8.2-2.7-.3v-.3c.1,0,.2,0,.3,0,.5,0,1.1,0,1.6,0l.7-1.7h.3Z"/>
    <ellipse class="st1" cx="20.7" cy="21.1" rx="3.2" ry="2.9"/>
    <polyline class="st8" points="14.6 18.7 15.1 19.6 15.4 19.5 16.8 19.4 16.2 19.2 15.7 19.1 15.3 18.4 14.9 18.1 14.8 18.1"/>
  </g>
  <line class="st3" x1="18.8" y1=".6" x2=".5" y2=".6"/>
  <line class="st3" x1="19" y1=".2" x2="19" y2="8.4"/>
</svg>