<?xml version="1.0" encoding="UTF-8"?>
<svg id="Layer_1" xmlns="http://www.w3.org/2000/svg" width="32.4" height="35.4" version="1.1" viewBox="0 0 32.4 35.4">
  <!-- Generator: Adobe Illustrator 29.2.1, SVG Export Plug-In . SVG Version: 2.1.0 Build 116)  -->
  <defs>
    <style>
      .st0 {
        fill: #c0b08d;
      }

      .st1 {
        fill: #967371;
      }

      .st2 {
        fill: #4e5253;
      }

      .st3 {
        fill: #393433;
      }

      .st4 {
        fill: #625952;
      }

      .st5 {
        fill: #536667;
      }

      .st6 {
        fill: #876b66;
      }

      .st7 {
        fill: #9d9486;
      }

      .st8 {
        fill: #b68d87;
      }
    </style>
  </defs>
  <path class="st3" d="M22.1,2.7c0,0,0-.7.4-.9,1.8-1,4.8-.2,6.9-.5.1,1.6-.3,4.5.5,5.9s1.3.5,1.8.9c.9.9.7,11.9.6,14.1s-1,3.7-1,5.3,1.2,6.6.4,7.8H2.4c-2.1-2.8.3-6.6-.3-9.8s-1.2-1.5-1.5-2.3c-.7-1.7-.7-13.4.4-14.7L15.9,0c1.6-.5,5,3.2,6.2,2.6ZM6.8,6.6c-1.8,1-3.6,1.9-5.3,3.1v11.8c1.5.2,2.6-1.5,3.4-1.9,1.4-.8,2.1-1.5,2.9-1.9s3.2-1.5,4.8-2.4,2.7-.6,3.4-2.4c1.2-3.1.1-7.6.5-11-.3,0-.7,0-1,0-.9.1-7.2,4-8.6,4.8ZM17.9,14.3c.4.4,1.4.6,1.9,1l11,6.2v-11.8l-1.4-.7c.2,1.9,0,3.1-.5,4.8-1.2-.2-2.3-.8-3.4-1.4s-2.7-1.4-2.8-1.5c-.6-.9.5-3.8-.6-5.7s-3-2.2-4.3-2.9,0-.7-1-.5l.2,11.6c.1.4.4.6.7.9ZM23.6,2.7v3.8l4.5.4.3-.4v-3.8c-1-.8-3.7-.8-4.8,0ZM28.4,8h-4.8c-1.4,1.9,4.5,4.1,4.8,3.8v-3.8ZM30.4,23.9c.2-1-.6-1.4-1.3-1.8-3.7-2.6-9-4.6-12.9-7.1L2.1,23.1c.8,1.1.8.4,1.6.2,2.6-.9,11.3-7.1,13-6.9l13.7,7.5ZM18.4,18.6c-1.7-1.4-2.6-.6-4.3,0,.5,2.1,1.5,2.5,3.4,1.9-1.4,2.6,3.5-.4,2.9-1-.5,0-1,0-1.4,0,0-.3-.2-.7-.5-1ZM15,21.5c-.6-.9-1.8-2.8-2.9-1.2l2.9,1.2ZM12.1,21.5c-.4-1.4-1.4-.8-2.4-.5v.5s2.4,0,2.4,0ZM22.7,21.5c-.5-1.3-2.1-1.3-2.9-.2l2.9.2ZM25.1,22.4H7.3v.5h17.8v-.5ZM5.9,23.9c-2.6.3-1,4.8-1.4,6.7h1.4v-6.7ZM24.1,30.6c.6,0,1.3,0,1.9,0v-6.7H7.1c-1.5,1.7-.4,4.6-.7,6.7h10.6c.1-.9-.1-2,0-2.9h.5c-.2.6,0,6.2.2,6.2.7-2-.3-4.2.7-6.2l.5,6c2.1.9,2.1-6.3.5-7,1.2-.3,1.6.2,2.4.5-.6-.8-.9,0-1,.7-.2,1.7.2,3.8,0,5.5.6.8.9,0,1-.7.2-1.7-.2-3.8,0-5.5.3.1.6.4,1,.5v6.2s.5-.5.5-.5c.3,0,.7.4,1,.5,1.7.3,2.6.6,4.6.5s1.2.4,1.2-.7c0-2.6-3.7-1.7-5.8-1.7s-.6,0-1,0c0-.5,0-1,0-1.4.3,0,.6,0,1,0ZM26.5,23.9v6.7h1.9c-.2-1.4.5-5.8-.5-6.5l-1.5-.2ZM30.4,32c-.2-1.6.8-4.3-1-5.3.2,1.6-.8,4.3,1,5.3ZM3.5,32l-1-3.8v4.8c.7.2.5-.8,1-1l-.4,1.7.7.6h13.1c0,0,0-2.3,0-2.3-3.4.6-10.5-.9-13.4,0Z"/>
  <path class="st1" d="M15.5,1.8c.3,0,.6,0,1,0-.3,3.4.7,7.9-.5,11-.7-1-.1-1.4-1.4-1.4,0,0,0-.4.2-.8s1.4-.7.8-2.6c-1.8,0-3.4,1-4.8,1.9-.1-.3,0-.9-.5-1.2-3.3-.5-5.2,4.7-1.1,2.8s.9-1.2,1.5-1.6c.3.5.2,1.3,1,1.7.6.3,1.9-.3,2.9-.3-1.3,1.4-5.8,2.4-1.9,3.8-1.6.9-4,1.9-4.8,2.4,0-1,.5-1.8-1-1.2s-3,1.3-1.9,3.1c-.8.4-1.9,2.1-3.4,1.9v-11.8c1.7-1.2,3.5-2.1,5.3-3.1l-.2,1.9c.9,0,2.7-.4,3.3-.9s.3-1.3,1.1-1.9c1.6-1.3,5.2-.7,4.5-3.9ZM15.5,4.7c-.2-.2-5.3,1.7-4.3,3.4l4.3-1v-2.3ZM6.4,9c-2.1.2-4,1.6-3.4,3.8l2.8-.6.6-3.3ZM10.1,14.6c.2-.3.9-2.4.4-2.8-1.5.7-3.3,1.3-3.1,3.4.8,0,2.3,0,2.8-.6ZM3.5,16.2c2.7.5,3.2-.9,3.4-3.4-1.8.8-3.8.8-3.4,3.4Z"/>
  <path class="st0" d="M16.9,27.7c-.1.9.1,2,0,2.9H6.4c.3-2.1-.7-5.1.7-6.7h19v6.7c-.6,0-1.3,0-1.9,0,1.6-5.7-6.3-8.5-7.2-2.9ZM11.6,25.3c-6.6-1-2,6.1-.2,3.4l.2-3.4Z"/>
  <path class="st1" d="M17.9,2.3c-.8,2.1,1.9,2.7,3.7,3.3s.7,0,.6-.4c1.1,1.9,0,4.8.6,5.7s2.3,1.2,2.8,1.5c0,2.4,1.1,3,3.4,2.9,0-.4,0-1.1,0-1.4.5-1.7.7-2.9.5-4.8l1.4.7v11.8l-11-6.2c2.4-1.2-.8-2.7-1.7-3.4l-.2,2.4c-.3-.3-.6-.5-.7-.9l-.2-11.6c.9-.3.8.4,1,.5ZM21.6,6.7c-.2-.3-3.5-1.8-3.7-1.5-1,2.9,5.5,4.8,3.7,1.5ZM17.9,8c-.8,1.8,1.1,4.9,2.9,3.6s-1.8-3.3-2.9-3.6ZM25.1,15.7c.4-2.5-1.7-3.3-3.8-3.4-.5,2.4,1.9,3.2,3.8,3.4ZM28.8,16.3l-3.2-.6c-.4,3,5.2,4.3,3.2.6Z"/>
  <path class="st6" d="M30.4,23.9l-13.7-7.5c-1.8-.2-10.4,6-13,6.9s-.8,1-1.6-.2l14.1-8.2c3.9,2.5,9.2,4.5,12.9,7.1.7.5,1.4.9,1.3,1.8Z"/>
  <path class="st7" d="M3.5,32c2.9-.9,10,.6,13.4,0v2.4s-13.1,0-13.1,0l-.7-.6.4-1.7Z"/>
  <path class="st8" d="M15.5,1.8c.6,3.2-3,2.6-4.5,3.9s-.6,1.4-1.1,1.9-2.4,1-3.3.9l.2-1.9c1.4-.8,7.8-4.6,8.6-4.8Z"/>
  <path class="st7" d="M28.4,8v3.8c-.3.3-6.2-1.9-4.8-3.8h4.8Z"/>
  <path class="st7" d="M28.4,2.7v3.8h-4.8v-3.8h4.8ZM27,3.7h-1.9v2.4h1.9v-2.4Z"/>
  <path class="st7" d="M24.1,32c2,0,5.7-.9,5.8,1.7s-.3.6-1.2.7c-2,.2-2.9-.1-4.6-.5v-1.9Z"/>
  <path class="st6" d="M26.5,23.9l1.5.2c1,.7.2,5.1.5,6.5h-1.9v-6.7Z"/>
  <path class="st8" d="M10.7,9.9c1.4-.9,3-1.9,4.8-1.9.6,1.9-.6,2.1-.8,2.6s-.1.8-.2.8c1.3,0,.7.4,1.4,1.4-.7,1.8-1.8,1.5-3.4,2.4-3.9-1.5.6-2.5,1.9-3.8-1,0-2.3.6-2.9.3-.8-.4-.7-1.2-1-1.7-.7.4-.8,1.2-1.5,1.6-4.2,2-2.2-3.3,1.1-2.8.5.3.3.9.5,1.2Z"/>
  <path class="st4" d="M24.1,30.6c-.3,0-.6,0-1,0,0-.9.1-2.1,0-2.9-.7-3.5-5.1-2.4-5.8,0h-.5c.9-5.7,8.8-2.8,7.2,2.9Z"/>
  <path class="st2" d="M19.3,26.7c1.6.7,1.6,7.8-.5,7l-.5-6c.2-.4.4-.8,1-1Z"/>
  <path class="st6" d="M5.9,23.9v6.7h-1.4c.4-2-1.2-6.4,1.4-6.7Z"/>
  <path class="st1" d="M18.4,18.6l-.5,1.4c0,0-.2.4-.5.5-1.9.6-2.9.2-3.4-1.9,1.8-.6,2.6-1.4,4.3,0Z"/>
  <path class="st1" d="M23.2,27.7h-.5c-.3-.1-.6-.4-1-.5-.8-.3-1.2-.8-2.4-.5s-.7.5-1,1c-1,2,0,4.2-.7,6.2-.3,0-.4-5.6-.2-6.2.6-2.4,5.1-3.5,5.8,0Z"/>
  <rect class="st6" x="7.3" y="22.4" width="17.8" height=".5"/>
  <path class="st8" d="M4.9,19.5c-1.1-1.8.5-2.5,1.9-3.1s.9.2,1,1.2c-.7.5-1.5,1.1-2.9,1.9Z"/>
  <path class="st8" d="M22.2,5.1c0,.4-.2.5-.6.4-1.8-.5-4.5-1.2-3.7-3.3,1.3.6,3.6,1.6,4.3,2.9Z"/>
  <path class="st8" d="M19.8,15.2c-.5-.4-1.5-.6-1.9-1l.2-2.4c.9.7,4.1,2.2,1.7,3.4Z"/>
  <path class="st2" d="M21.7,27.2c-.2,1.8.2,3.8,0,5.5s-.4,1.5-1,.7c.2-1.8-.2-3.8,0-5.5s.4-1.5,1-.7Z"/>
  <path class="st8" d="M28.9,13.8c-.1.4,0,1,0,1.4-2.3.2-3.4-.5-3.4-2.9,1.1.6,2.2,1.2,3.4,1.4Z"/>
  <path class="st6" d="M30.4,32c-1.7-.9-.7-3.7-1-5.3,1.7.9.7,3.7,1,5.3Z"/>
  <path class="st6" d="M18.8,19.5c.4,0,1,0,1.4,0,.6.6-4.3,3.6-2.9,1,.2,0,.4-.5.5-.5.5-.2.9-.5,1-.5Z"/>
  <path class="st6" d="M15,21.5l-2.9-1.2c1.1-1.6,2.3.3,2.9,1.2Z"/>
  <path class="st8" d="M23.2,30.6c0,.5,0,1,0,1.4v1.4l-.5.5v-6.2s.5,0,.5,0c.1.7,0,2,0,2.9Z"/>
  <path class="st6" d="M3.5,32c-.4.1-.3,1.2-1,1v-4.8s1,3.8,1,3.8Z"/>
  <path class="st5" d="M28.4,2.7h-4.8c1.1-.8,3.8-.8,4.8,0Z"/>
  <polygon class="st6" points="28.4 6.6 28.2 7 23.6 6.6 28.4 6.6"/>
  <path class="st1" d="M22.7,21.5l-2.9-.2c.8-1.1,2.4-1.1,2.9.2Z"/>
  <path class="st6" d="M12.1,21.5h-2.4s0-.5,0-.5c1-.3,2-.9,2.4.5Z"/>
  <path class="st4" d="M24.1,32v1.9c-.3,0-.6-.4-1-.5v-1.4c.3,0,.6,0,1,0Z"/>
  <path class="st2" d="M18.8,19.5c0,0-.4.3-1,.5l.5-1.4c.3.2.4.6.5,1Z"/>
  <path class="st8" d="M15.5,4.7v2.3c0,0-4.3,1-4.3,1-1-1.7,4.1-3.6,4.3-3.4Z"/>
  <path class="st8" d="M6.4,9l-.6,3.3-2.8.6c-.6-2.2,1.2-3.6,3.4-3.8Z"/>
  <path class="st8" d="M3.5,16.2c-.5-2.6,1.5-2.6,3.4-3.4-.1,2.4-.7,3.9-3.4,3.4Z"/>
  <path class="st8" d="M10.1,14.6c-.5.6-2,.6-2.8.6-.2-2.1,1.6-2.6,3.1-3.4.5.4-.1,2.5-.4,2.8Z"/>
  <path class="st3" d="M11.6,25.3l-.2,3.4c-1.8,2.7-6.4-4.3.2-3.4Z"/>
  <path class="st8" d="M25.1,15.7c-2-.1-4.3-1-3.8-3.4,2.1,0,4.3.8,3.8,3.4Z"/>
  <path class="st8" d="M17.9,8c1.1.3,4.8,2.3,2.9,3.6s-3.7-1.8-2.9-3.6Z"/>
  <path class="st8" d="M21.6,6.7c1.8,3.3-4.7,1.4-3.7-1.5.2-.3,3.6,1.3,3.7,1.5Z"/>
  <path class="st8" d="M28.8,16.3c2,3.7-3.6,2.4-3.2-.6l3.2.6Z"/>
  <rect class="st3" x="25.1" y="3.7" width="1.9" height="2.4"/>
</svg>