<?xml version="1.0" encoding="UTF-8"?>
<svg id="Layer_1" xmlns="http://www.w3.org/2000/svg" width="40" height="28.7" version="1.1" viewBox="0 0 40 28.7">
  <!-- Generator: Adobe Illustrator 29.2.1, SVG Export Plug-In . SVG Version: 2.1.0 Build 116)  -->
  <defs>
    <style>
      .st0 {
        fill: #424242;
        opacity: .3;
      }

      .st1 {
        fill: #ecddba;
      }

      .st2 {
        fill: #393433;
      }

      .st3 {
        fill: #262222;
      }

      .st4 {
        fill: #111211;
      }

      .st5 {
        fill: #967371;
      }

      .st6 {
        fill: #af978c;
      }

      .st7 {
        fill: #625952;
      }
    </style>
  </defs>
  <polygon class="st6" points="36.7 12.6 36.7 11.2 31.7 6.2 28.5 3.7 26.9 1.7 22.2 1.1 20.2 .6 13.7 3.9 6.7 7.6 4.3 11.3 1.7 13.6 .7 14.9 1.7 17.5 6.1 18.3 9.6 19.2 14.9 18 16.6 22 18.4 23.2 20.2 23.6 22.7 19.5 28.1 19.2 31 19.7 32.7 23 33.8 23.1 34.1 22.6 34.2 24 34.9 23.5 36.2 20.6 35.6 16.7 35.7 14.9 36.7 12.6"/>
  <path class="st4" d="M39.1,20.7c-1.2.2-.8-.5-1-1-.8-2.1-.8-2.7-.7-4.8s.9-1.6-.5-1.5c-1.6,2-.2,4.3-.2,6.2s-.8,3.6-1.5,4.5c-1.7,2.1-6.4,1.7-5.4-1.1s3.4-1.5,0-3.4c-1.4,3.2-2.2,4.3-6,3.8-.7-2.2,1.3-1.7,1.4-3.4-4.4-1.3-3.9,4.5-7.1,5.2s-3.3.4-3.8-.4l-.2-1.9h-3.3l1-3.9c-2.8.9-5,.2-7.7-.5s-4.8,0-3.8-4.6,2.9-2.5,4-3.6c1.1-1.1.5-1.2,1.2-1.9s2.1-1.7,2.4-1.9c.3-.2.7,0,1,0l-1.9-2.4,1.4-.5c5.6,1.2,6.3-3,10.8-3.6,4.5-.6,2.7.6,4.3.9s2.5-.2,3.9.4c1.4.6,9.5,8.1,10.1,9.1,1.3,1.9.6,3.8,1.1,5.6s1.1,1.3,1.2,2.1c.2,1.3-.7,1.9-.9,2.5h.2ZM35.3,11.1c-.5-2.4-2.5-3.1-4.1-4.3-2.3-1.9-2.6-3.7-6.5-2.9l1.4-1.4c-1.4-.2-4.2.8-5.4.5s-.3-.9-.7-1c-2-.5-5.1,2.4-6.9,3.4-.6.2-.7,0-1.4.5s-5.1,3.4-5.6,4-.6,1.8-1.1,2.3-1.1.6-1.4,1-.4.9-.5,1c-.3.3-2,.2-1.8,1.6s.7,1.5,1.2,1.7c1.5.6,1.1-.9,1.2-.9h1c1.2-.1.6-.2,1.4-.5s.3,0,.5,0l1.4,1c.1-.8-.2-1.3-.5-1.9l.5-.5c.2.2.4.3.5.5.3.4,1.9,1,0,2.2s-2.7-.3-2.9.7c3.8,0,12.1,0,10.1-5.8,0,0,0-.6.5-.5,0,2.2,1.5,3,2.4,4.3l-.9,5.9,1.9.8c.7-3.3,2.9-3.1,2.9-7.2s0-.6,0-1c2.4,0-.8,3.5,3.1,3.4s1.9-2.5,4.6-4.3c-.2,2.3-1,3.4.8,5.3,1.8,1.9,1.1.4,1.2.5.8.9,1,3.6,2.2,3.4,1.8-.4.7-4.3.7-4.8,0-1.6,1.6-6.2.5-6.7l-.3-.3ZM15.6,18.7c-2.2-.4-2.7,1-2.9,2.9,1.5-.1,3.2-1.2,2.9-2.9ZM28.1,19.2l-1.5.3c-.2.6-.2,1.3-.5,1.8s-1.1,0-.9.8c2.1.3,3.2-.8,2.9-2.9ZM18,23.1c-1.2-.5-1.8-.3-2.4,1h2.4v-1ZM33.8,23.1l-2.9.9c.8.1,3.2.7,2.9-.9Z"/>
  <path class="st0" d="M4.1,18.7c2.7.6,4.9,1.3,7.7.5l-1,3.8h3.3l.2,1.9c.5.7,2.9.6,3.8.4,3.1-.7,2.7-6.5,7.1-5.2-.2,1.7-2.1,1.1-1.4,3.4,3.8.5,4.6-.7,6-3.8,3.5,1.9.6,1.5,0,3.4-1,2.9,3.8,3.2,5.4,1.1s1.5-3.3,1.5-4.5h1.4c.2.5-.2,1.2,1,1-.2.8.2,1.8-.2,2.9-1.2,2.5-8.6,4.3-11.2,4.7-4.3.7-8.8.7-13.2,0s-12.2-2.4-11.4-6.8,1.9-1.5,1-2.7h0Z"/>
  <path class="st4" d="M8.4,3.9l-1.4.5-.4.7,1.4,1.7c-.3.2-2.2,1.8-2.4,1.9V3.4c1.2-.4,2.2.4,2.9.5h-.1Z"/>
  <path class="st6" d="M13.2,5.3c1.7-1,4.9-3.9,6.9-3.4s.3.9.7,1c1.2.3,4-.7,5.4-.5l-1.4,1.4c3.9-.8,4.2,1,6.5,2.9s3.6,1.9,4.1,4.3c-.5-.3-1.3.5-1-1.4h-1.4v1.9l-3.1-1.9-.2,1.9-4.3-1.4.5,2.4c-1.1.3-1.4-1.2-2.2-1.3-1.8-.3-1.9,1.6-1.6,3l.4.3v1l-1.9,2.9c-1.5.2-1.2-1.4-1.9-2.4s-2.4-2.1-2.4-4.3c-.4-.1-.4.5-.5.5-1.7.7-1.3,1.2-2,2.8h-5.2c-.1,0-.3-.2-.5-.4-.3-.3-.4-1-.5-1.4l-1.4,1c0-.1-1.4-.8-1-1.9.5-.5.6-1.7,1.1-2.3s4.8-3.6,5.6-4l.5.2-.9,2.2h.7c.5-.4.7-1,1.2-1.4v.5c-.6.8-.3,1.2,0,1.9.5,1.6.6.7,1,1s-.5,1.3,1.2,1c2.6-.5,2.9-3.8,3.1-5.9-.4-1.4-4.1-.2-5.2.2l-.3-.4Z"/>
  <path class="st5" d="M22.3,14.4l-.4-.3c-.3-1.4-.3-3.3,1.6-3s1.1,1.6,2.2,1.3l-.5-2.4,4.3,1.4.2-1.9,3.1,1.9v-1.9h1.4c-.3,1.9.4,1.2,1,1.4,1.1.5-.4,5.1-.5,6.7l-1.7-.5.2,1.9h-1.4s-.7,0-1.2-.5c-1.8-1.9-1-3-.8-5.3-2.7,1.8-.3,4.2-4.6,4.3s-.7-3.4-3.1-3.4l.2.3Z"/>
  <path class="st4" d="M13.2,5.3c1.1-.4,4.8-1.6,5.2-.2-.3,2.2-.5,5.4-3.1,5.9s-1.1-.9-1.2-1l2.8-1-.4-1.8-.2-.5c-.1,0-.1.4-.2.5-1.4.4-2,.6-2.9,1.9-.3-.7-.6-1.1,0-1.9l1.4-.7c-.5-.8-1,0-1.4.2s-.7,1-1.2,1.4h-.7l.9-2.2-.5-.2c.7-.3.9-.3,1.4-.5h.1ZM17,5.3l-1.9.5v.5h1.9v-1Z"/>
  <path class="st7" d="M15.6,12c2,5.7-6.3,5.7-10.1,5.8.2-1,1.9-.1,2.9-.7,1.9-1.2.3-1.7,0-2.2h5.2c.7-1.7.3-2.2,2-2.9Z"/>
  <path class="st5" d="M22.3,15.4c0,4.1-2.1,3.9-2.9,7.2l-1.9-.8.9-5.9c.7,1,.4,2.6,1.9,2.4l1.9-2.9h.1Z"/>
  <path class="st5" d="M34.8,17.8c0,.5,1.1,4.4-.7,4.8s-1.3-2.5-2.2-3.4h1.4l-.2-1.9,1.7.5Z"/>
  <path class="st5" d="M6,13.9c.2.4,0,1.4,0,1.9-.8.3-.3.4-1.4.5l-1-3.4c.3-.4,1.1-.6,1.4-1-.5,1.1.9,1.8,1,1.9h0Z"/>
  <path class="st2" d="M15.6,18.7c.3,1.7-1.4,2.8-2.9,2.9.2-1.8.7-3.3,2.9-2.9Z"/>
  <path class="st5" d="M3.1,13.9l.5,2.4s.3,1.5-1.2.9-1.1-1.3-1.2-1.7c-.1-1.3,1.5-1.3,1.8-1.6h.1ZM3.1,14.9h-1v1.4h1v-1.4Z"/>
  <path class="st2" d="M28.1,19.2c.3,2.1-.8,3.2-2.9,2.9-.2-.7.7-.3.9-.8s.3-1.2.5-1.8c0,0,1.5-.3,1.5-.3Z"/>
  <path class="st7" d="M33.8,23.1c.3,1.7-2.1,1.1-2.9.9l2.9-.9Z"/>
  <path class="st5" d="M7,4.3l1.9,2.4h-1l-1.4-1.7.4-.7h.1Z"/>
  <path class="st3" d="M4.6,16.3h-1l-.5-2.4s.2-.6.5-1l1,3.4Z"/>
  <path class="st4" d="M6,13.9l1.4-1c0,.5.2,1.1.5,1.4l-.5.5c0-.3-.6-.5-.5-1h-.5v1.9h-.5c0-.5.2-1.5,0-1.9h0Z"/>
  <path class="st1" d="M7.4,14.9c.3.6.6,1.1.5,1.9l-1.4-1v-1.9h.5c0,.4.3.7.5,1h0Z"/>
  <path class="st7" d="M18,23.1v1h-2.4c.6-1.3,1.2-1.4,2.4-1Z"/>
  <path class="st6" d="M16.1,7.2l.2,1,.2-1,.4,1.8-2.8,1c-.3-.3-.4.6-1-1,.8-1.3,1.5-1.5,2.9-1.9h0Z"/>
  <polygon class="st6" points="17 5.3 17 6.3 15.1 6.3 15.1 5.8 17 5.3"/>
  <path class="st6" d="M13.2,6.7c.4-.3,1-1,1.4-.2l-1.4.7v-.5Z"/>
  <path class="st3" d="M16.6,7.2l-.2,1-.2-1s.1-.4.2-.5l.2.5Z"/>
  <rect class="st2" x="2.2" y="14.9" width="1" height="1.4"/>
</svg>