<?xml version="1.0" encoding="UTF-8"?>
<svg id="Layer_1" xmlns="http://www.w3.org/2000/svg" width="50" height="50" version="1.1" viewBox="0 0 50 50">
  <!-- Generator: Adobe Illustrator 29.2.1, SVG Export Plug-In . SVG Version: 2.1.0 Build 116)  -->
  <defs>
    <style>
      .st0 {
        fill: #fff;
      }
    </style>
  </defs>
  <path class="st0" d="M19.4.2c1.1,2.8,2.5,5.3,3.3,8.2s-.3,2.3.9,2.4c1-.2,2.2-5.7,2.9-6.8,0-.6-.5-1-1.2-.8s-.6,2-1.4,1.6L22.1.2h-2.7Z"/>
  <path class="st0" d="M8.8,50.1l.3-4.9-1.3-.2-.5,1.5c-.5-.9-2.7-5.9-4-3.3s1.9,4.3,2.4,5.3.5,1,.5,1.7h2.7Z"/>
  <path class="st0" d="M50.1,38.1c-.5,0-.9-.2-1-.7-3.3.2-1.5,1.6-1,3.1s1.3,4.3,1.3,5.2l.7.3v-8Z"/>
  <path class="st0" d="M50.1,10.8c-.6.2-.9-.6-1-.7-.9-.4-1.9-.3-2,.8s3.2,6.4,2.6,7.8h.3v-8Z"/>
  <path class="st0" d="M39.4.2h-2.7c.1.8.5,1.7.6,2.5s-.4,4,.9,3.8,2-5.3,1.2-6.3Z"/>
  <path class="st0" d="M34.8.2h-2.7c-.2.8.1,1.1.5,1.7s2,3.3,2.7,3.3c2.8,0-.3-3.9-.5-5Z"/>
  <path class="st0" d="M47.4,50.1h2.7v-2c-.5.1-.7,0-1-.3-.8-.5-2.2-3.3-3.2-1.3s1.5,2.1,1.5,3.7Z"/>
  <path class="st0" d="M.1,20.5v7l1.2,1c1.8,0,.3-7.2-1.2-8Z"/>
  <path class="st0" d="M44.1.2h-2.7l2.2,5.3c1.9,0,1.1-4.2.5-5.3Z"/>
  <path class="st0" d="M45.1,50.1c-.4-1.6-.3-3.6-2.2-4.3-2.5.8,0,2.6-.5,4.3h2.7Z"/>
  <path class="st0" d="M6.5.2h-3c.8,2.1,2.8,2.7,3.5,5,1.4-1.5-.3-3.4-.5-5Z"/>
  <path class="st0" d="M12.5.2c1.6.9,2.2,2.6,3.8,3.3.9-1,.2-2.2.2-3.3h-4Z"/>
  <path class="st0" d="M15.4,50.1c-1.1-1.1-3.3-4.7-4.3-1.8l1,1.8h3.3Z"/>
  <path class="st0" d="M.1,44.8v4.3c3.9,1.1,2-3.2,0-4.3Z"/>
  <path class="st0" d="M50.1,4.5l-1-.3c0,.1-1.3.2-1.3,1.2s1.3,1.8,1.7,2.2.5.2.7.3v-3.3Z"/>
  <path class="st0" d="M.1,1.5v2.3c.9.2,1.7.2,2,1.2,1.5-.2-.6-3.9-2-3.5Z"/>
  <path class="st0" d="M.1,36.8v1.7c1.7-.3,1.2,1.6,2.2,2.3,1.1,0-.2-4.9-2.2-4Z"/>
  <path class="st0" d="M27.4.2h-2.7c.3,2.9,2.9,3.2,2.7,0Z"/>
  <path class="st0" d="M24.1,50.1c-.3-.7-1.1-2-1.8-2l-1.2,2h3Z"/>
  <path class="st0" d="M.1,10.1v3.3c2.4.1,1.9-3,0-3.3Z"/>
  <path class="st0" d="M33.4,50.1c-.5-1.3-3.3-1.6-3.3,0h3.3Z"/>
  <path class="st0" d="M48.8.8c0-.1,0-.5,0-.7h-2.7c.2,1.6,1.6,1.7,2.7.7Z"/>
  <path class="st0" d="M16.5,41.5c.1-.2.7-.2.9-.6.6-1.8.3-5.8-.7-7.6s-2.3-2.7-3.1-1.2c-.4.7.7,2.3,1.2,3.1s.8.4,1,.8c.3,1-.1,2.7,0,3.8-.8,1-1.1-2.4-1.2-2.7-.3-1-2.3-3.8-3.5-3.2-1.7.9.8,2.8,1.5,3.9s1.3,3.3,1.6,3.9.9.3,1.1.8.5,4.8,1.1,2.5-.2-2.8.1-3.4Z"/>
  <path class="st0" d="M27.4,49.1c1.1-1.8-.5-4.3-.3-5.5s2.2-3.2,2-4c-1.9-1.7-2.5.6-3.5,1.8-.3,0-2.6-3.8-3.3-4.3s-1.6-.2-1.8.6c-.3,1.3,1,1.7,1.6,2.6.8,1.4,1.8,3,2.6,4.4s1.9,5.2,2.8,4.3Z"/>
  <path class="st0" d="M45.2,17.2c.4-.5,1.9-.7,1.1-2.1-.8-1.2-2.1,1.1-2.8,1.3.3-1.9-3.8-7.7-5.5-7.7-2.6,1.3-.2,2,.5,2.9s3,4.2,3.3,5.2c.6,1.8.1,4.3.8,6.2.3.6.8,0,.9-.4.7-1.9.4-3.6,1.7-5.5Z"/>
  <path class="st0" d="M17.8,30.1c-1-.4-2.5-3.3-3.7-2.5-.4.3-.4.5-.3.9.3,1,5,5,5.4,6.5,1.1,0,1-7.3.7-8.3s-3.3-4.2-4.3-3.9c-2.7.7,1.5,3.5,1.8,4.4s.3,1.9.2,2.9Z"/>
  <path class="st0" d="M29.1,17.8h-2.3c-.4,2,1.1,1.5,2.3,2.1s3.3,3.5,3.3.7-1.7-7.5-2.6-9.1-2-2.6-2.8-2.4c-2,1.1,0,2.2.8,3.7s1.8,4.3,1.3,4.9Z"/>
  <path class="st0" d="M29.4,30.5l-2.2-1-.5.8c0,1.3,2.6,1.9,3.2,2.5s.5,2.6,1.9,2.3c2.1-.5.7-2.2.5-3s-.2-1.6-.4-2.3c-.5-1.4-3.8-7-5.3-6.6-1.9,1.2-.3,1.7.4,2.9s2.6,4.2,2.4,4.4Z"/>
  <path class="st0" d="M5.8,36.1l-2.1-1-.7,1.3c.4.8,3.3,1.4,4.2,2.2s2.1,3.6,2.8,4.8c.6-.4.5-.9.5-1.5,0-1.8-2.9-9.4-4.1-10.9s-1.2-1.4-2-.4,1.5,3.9,1.4,5.5Z"/>
  <path class="st0" d="M13.8,15.5c0-1.6.9-3.3,1-4.8s-1.8-8.2-4.1-7.5,2.1,4.9,1.5,6.3c-1.2-.8-1.6-2.1-3.3-1.7-.2,2.1,2.4,2.6,3.3,4.5s0,3,1.7,3.1Z"/>
  <path class="st0" d="M39.4,21.5l-1.3-3.2c-1.2-.4-2.6-3.2-3.9-2.2l-.4,1.1c1.2,1.4,2.6,2.6,3,4.6-.3.3-1.9-1.6-2.7-.2,1.2.5,2.3,1.1,2.9,2.4s.2,4.2,1.4,3.3,1.2-4.2,1.5-5.2,2.1-3.2.2-2.8l-.7,2.2Z"/>
  <path class="st0" d="M28.8,1.8c-.9.9,2.3,3.8,2,5l-1.8-.3c-.5.2-.7.6-.5,1.1s4.4,3,4.9,3.6.3,2.3,1.3,2.9c1.6-1.4.3-2.1,0-3.3-.8-3.5-.9-5.9-4-8s-1.1-1.7-1.9-1Z"/>
  <path class="st0" d="M23.2,18.1c-.2-.2-.3-1.8-.7-2.5s-3.5-3.5-3.7-3.7c-.9-.4-1.8.4-1.6,1.3s2.2,1.8,2.9,2.8c1.5,2.3,1.5,4.9,2.4,7.4,1.8,0,1.1-1.8,1.4-2.8s1.3-1,1.3-1.7c0-1.2-1.5-.6-2-.9Z"/>
  <path class="st0" d="M11,26.8c.6,0,.7-.4.8-.8.3-1.3.9-3.8,1-5s.4-4-1.5-2.8l-.7,2.7c-.3,0-1.9-3.6-3.3-3.3l-.9,1.4c.9,1.4,2.3,3.1,3.1,4.6s.4,2.4,1.4,3.3Z"/>
  <path class="st0" d="M46.4,28.1c-.4.3-2-4.2-3.3-3.2l-.7,1,2.5,5.8.8,4c1.4-.7.8-2.3,1.1-3.4s1.2-3.4,1.2-4.1c.1-1.4-1.5-1.7-1.7-.1Z"/>
  <path class="st0" d="M43.8,44.8c1.2-2.9-1.3-9.7-5.1-8.6s.9,1.3,1,1.4,1.2,2.1,1.1,2.2l-2.1-.6-.6.8.2.5c.4.7,2.2,1,2.8,1.5,1.1.9.9,3,2.7,2.8Z"/>
  <path class="st0" d="M5,9.3c.7.9,1.5,1.9,2,2.9s2.9,7.5,2.7,3.3-.6-4.1-1.3-5.4S3.8,3.8,3.1,7c0,1.1,1.4,1.7,1.9,2.3Z"/>
  <path class="st0" d="M25.7,31.9c0,0-1.8-1.3-2-1.5-.7-.4-3-1.1-2.5.5s2.4,1.3,3,2.7-1.4-.1-1.7.3c-2,1.4,5.6,4.7,5.3,2.1l-2.1-4.1Z"/>
  <path class="st0" d="M37.4,49.4c-.2-1.4.4-2.7.3-4.2s-2.2-7.1-4.1-6.5c-1.4,1.2.7,3.5,1.3,5s1.6,6.8,2.5,5.6Z"/>
  <path class="st0" d="M9.6,33.5c1.2,0,.2-3.9,0-4.7-.3-1.1-2.2-4.9-3.3-2.7s2.2,4.2,2.7,5.3,0,1.5.7,2Z"/>
  <path class="st0" d="M19.6,48.8c1.4-1.5,2.8-5.2,1.2-6.8s-1.5-.5-2.2.2c-1.5,1.5.8,2.2,1,3.7v3Z"/>
  <path class="st0" d="M20.8,24.8c-.9,1.4,3.6,5.1,4.2,5,1.6-.3-1.3-4.8-2.3-5s-1.2,0-1.8,0Z"/>
  <path class="st0" d="M4.5,23.5c-.3-1.3.6-2.8.3-4.1-.6-2.4-3.6-2.4-3.2-.5s2.4,5.3,2.9,4.6Z"/>
  <path class="st0" d="M18.4,21.8c.4-1.7-3.3-6.3-4.7-4.5-.3.3-.4.6-.3,1,.1.6,4.7,3.8,5,3.6Z"/>
  <path class="st0" d="M35.9,37.4c1.9-1.4,2.8-5.5.3-6.7l-.9.5c-1,1.3.7,3,.7,4.4s-1.1,1.2-.2,1.8Z"/>
  <path class="st0" d="M33.6,29.5c.4,0,.8-3.8.8-4.1,0-.5-1.9-2.3-2.7-1.8-1.5,1.2.2,1.9.6,2.7s.2,2.6,1.4,3.3Z"/>
  <path class="st0" d="M32.1,47.1c-.2-2,1.1-5.8-2.1-5.3-1.3.2.7,4.8.9,5,.4.3.7.4,1.2.3Z"/>
  <path class="st0" d="M45.4,13.1c.2-2-.1-4.9-2.4-5.3-2.5.6,1.5,4.6,2.4,5.3Z"/>
  <path class="st0" d="M48.8,22.5c0-.2-1.3-1.9-1.6-2-.9-.2-1.5.6-1.4,1.4,0,1.3,2.6,2.3,3.3,3.5,0-1,.2-1.8-.3-3Z"/>
  <path class="st0" d="M41.4,33.1c1-1.6.2-7-2-4.2s.3,1.2.5,1.9c.4.9,0,2.3,1.5,2.3Z"/>
  <path class="st0" d="M19.4,10.5c2.7-.4-1.2-5.6-2.7-4.5s3.3,2.8,2.7,4.5Z"/>
  <path class="st0" d="M4.8,17.8c1.3-.7.7-3.5,0-4.5s-1.8.2-2.6,1c1.3.8,2.3,2,2.7,3.5Z"/>
  <path class="st0" d="M23.4,12.8l2.2,4.3c1.3-1.6.1-5-2.2-4.3Z"/>
</svg>